<?xml version="1.0" encoding="UTF-8"?>
<svg viewBox="0 0 808 808" xmlns="http://www.w3.org/2000/svg">
<circle cx="404" cy="404" r="404" fill="#5deb5a"/>
<path class="e" d="m402.91 204.91c18.68 0 35.48 10.38 43.84 27.09l137.85 275.71c7.65 15.31 6.85 33.13-2.14 47.69-9 14.56-24.58 23.25-41.7 23.25h-275.7c-17.11 0-32.7-8.69-41.69-23.25-9-14.56-9.8-32.38-2.14-47.69l137.84-275.71c8.36-16.71 25.16-27.09 43.84-27.09m0-33.7c-31.33 0-59.97 17.7-73.98 45.72l-137.85 275.71c-12.82 25.64-11.45 56.09 3.62 80.47s41.69 39.23 70.36 39.23h275.71c28.67 0 55.29-14.84 70.36-39.23 15.07-24.38 16.44-54.83 3.62-80.47l-137.86-275.71c-14.01-28.02-42.65-45.72-73.98-45.72z" fill="white" />
</svg>
