<?xml version="1.0" encoding="UTF-8"?>
<svg viewBox="0 0 50 50" xmlns="http://www.w3.org/2000/svg">
<path d="m25 50c13.807 0 25-11.193 25-25s-11.193-25-25-25-25 11.193-25 25 11.193 25 25 25z" fill="#2E6CF6"/>
<path d="m23.713 7.608c0.9497-0.50578 2.0976-0.46421 3.0082 0.10893l7.062 4.4447c0.8725 0.5492 1.402 1.508 1.402 2.539v21.326c0 1.1028-0.6051 2.1167-1.5757 2.6403l-6.9066 3.726c-0.9379 0.506-2.0739 0.4764-2.9842-0.0776l-8.6982-5.2942c-0.8944-0.5443-1.4403-1.5156-1.4403-2.5626v-19.653c0-1.1086 0.6114-2.1268 1.5898-2.6479l8.543-4.5496zm-8.4709 7.3181 7.4914 4.3221-7.4914 4.3221v-8.6442zm0 11.506v8.7939l8.5269 5.1898c0.9103 0.5541 2.0462 0.5837 2.9841 0.0777l6.7701-3.6524v-10.409l-7.6413 4.4086c-0.9278 0.5353-2.0706 0.5353-2.9984 0l-7.6414-4.4086zm18.281-2.8618-7.4914-4.3221 7.4914-4.3221v8.6442zm-0.7653-10.106-8.3752 4.832-8.2727-4.7728 7.5329-4.0118c0.9497-0.50578 2.0976-0.46421 3.0082 0.10894l6.1068 3.8436zm-9.2062 7.2144-7.4914 4.3221 7.4914 4.3221v-8.6442zm1.6619 8.6442 7.4914-4.3221-7.4914-4.3221v8.6442zm13.995-15.133c0-2.2461-1.2269-4.3129-3.1987-5.3884l-1.3408 2.4581c1.0723 0.5849 1.7395 1.7088 1.7395 2.9303v0.1195h2.8v-0.1195zm-26.453 26.082c-1.9719-1.0755-3.1988-3.1423-3.1988-5.3884v-0.1195h2.8v0.1195c0 1.2215 0.6672 2.3454 1.7396 2.9303l-1.3408 2.4581z" clip-rule="evenodd" fill="#fff" fill-rule="evenodd"/>
</svg>
