<?xml version="1.0" encoding="UTF-8"?>
<svg fill="none" viewBox="0 0 72 72" xmlns="http://www.w3.org/2000/svg">
<g clip-path="url(#b)">
<g filter="url(#a)">
<path d="m36 72c19.882 0 36-16.118 36-36s-16.118-36-36-36-36 16.118-36 36 16.118 36 36 36z" fill="#988430"/>
<path d="m35.999 70.847c19.246 0 34.847-15.602 34.847-34.847 0-19.246-15.602-34.847-34.847-34.847s-34.847 15.602-34.847 34.847c0 19.245 15.602 34.847 34.847 34.847z" fill="#7A6A2A"/>
<path d="m36.001 70.113c18.84 0 34.113-15.273 34.113-34.113 0-18.84-15.273-34.113-34.113-34.113s-34.113 15.273-34.113 34.113c0 18.84 15.273 34.113 34.113 34.113z" fill="#BA9F33"/>
<path d="m15.734 32.155c-0.2039-0.1862-0.4193-0.3729-0.6174-0.5591-0.1982-0.1862-0.4017-0.3729-0.6056-0.5591l-0.606-0.576c-0.099-0.0991-0.2039-0.1862-0.3029-0.2857-0.0991-0.0872-0.2155-0.1862-0.3145-0.2738-0.8041-0.763-1.6128-1.526-2.4058-2.2894 0.8214 0.7515 1.6255 1.4976 2.4468 2.2602l0.2854 0.2857c0.099 0.0987 0.2039 0.1863 0.3029 0.2853l0.6056 0.5591c0.2039 0.1863 0.4021 0.3729 0.606 0.576 0.2039 0.2032 0.4016 0.391 0.6055 0.5768zm-10.671-0.1151s2.9242 0.3026 4.3515 0.5065c1.3221 0.1866 5.4582 0.8214 5.4582 0.8214l-9.8097-1.3279zm0 0c0.82138 0.0699 1.6432 0.157 2.4645 0.2445 0.41933 0.0407 0.82139 0.0872 1.2234 0.1279l0.6171 0.0703c0.2039 0.0288 0.4021 0.058 0.606 0.0871l2.4468 0.3902 1.2231 0.2039c0.402 0.0699 0.8041 0.1459 1.2234 0.2158-0.4021-0.0407-0.8214-0.0991-1.2234-0.1574l-1.2231-0.1748-2.4468-0.3609c-0.2039-0.0292-0.4021-0.0703-0.606-0.0991l-0.6174-0.071c-0.4021-0.0407-0.82142-0.0991-1.2235-0.146-0.82138-0.0986-1.6428-0.2039-2.4641-0.3317l2e-5 0.0012zm9.5187 2.0897s-3.1223 0.7926-4.1768 1.0956c-1.0368 0.2853-4.1767 1.2407-4.1767 1.2407l8.3535-2.3363z" clip-rule="evenodd" fill="#CFB66C" fill-rule="evenodd"/>
<path d="m14.586 34.13c-0.6931 0.2039-1.3824 0.4021-2.0855 0.5887l-2.0855 0.5591c-0.6931 0.2039-1.3824 0.402-2.0736 0.6059l-1.0368 0.2853c-0.34368 0.0991-0.69312 0.1863-1.0483 0.2857 0.3433-0.1152 0.69312-0.233 1.0368-0.3321l1.0368-0.3318c0.6931-0.2158 1.3824-0.4197 2.0736-0.6351 0.7046-0.1748 1.3981-0.3614 2.1027-0.5303 0.6697-0.169 1.3748-0.338 2.0798-0.4954zm-7.9146 4.2584c0.34329-0.1283 4.3047-1.9745 5.2251-2.4058 0.4608-0.2158 1.8002-0.6912 1.8002-0.6912l-7.0253 3.097z" clip-rule="evenodd" fill="#CFB66C" fill-rule="evenodd"/>
<path d="m6.6703 38.388c0.30259-0.1152 0.58828-0.2561 0.87936-0.3901l0.86203-0.4021 1.7304-0.8329c0.576-0.2738 1.1358-0.576 1.7299-0.8333 0.3029-0.1278 0.6059-0.2327 0.9085-0.3317l0.4608-0.1456c0.1571-0.0407 0.303-0.0875 0.4608-0.1282-0.576 0.2738-1.1823 0.5068-1.7591 0.7745-0.576 0.2857-1.165 0.5188-1.7595 0.7749l-1.7591 0.7745c-0.59057 0.2393-1.1662 0.4954-1.7541 0.74zm0.38131 1.613s3.5881-2.1028 4.8231-2.7786c0.6466-0.361 2.7379-1.3982 2.7379-1.3982l-7.561 4.1768z" clip-rule="evenodd" fill="#CFB66C" fill-rule="evenodd"/>
<path d="m7.0586 40.002c0.60557-0.3729 1.223-0.7515 1.8405-1.1359l0.9216-0.5595c0.3145-0.1862 0.6175-0.3609 0.9381-0.5472 0.3145-0.1866 0.6175-0.3728 0.9377-0.5475 0.1525-0.0942 0.3122-0.176 0.4777-0.2446l0.4893-0.2447c0.6466-0.3144 1.2933-0.6351 1.9749-0.9089-0.6175 0.3905-1.2526 0.7227-1.8874 1.066-0.3145 0.1747-0.6351 0.3322-0.9496 0.5069s-0.6175 0.3613-0.9381 0.5303c-0.3145 0.1862-0.6175 0.3609-0.9378 0.5299l-0.9496 0.5184-1.9173 1.0368zm7.5295-3.7166s-2.231 1.7126-2.9533 2.2602-2.8485 2.0855-2.8485 2.0855l5.8018-4.3457z" clip-rule="evenodd" fill="#CFB66C" fill-rule="evenodd"/>
<path d="m27.392 50.097-1.1416-2.1612 0.6639-2.7029 4.7359-1.829-2.0156-4.1357 0.9961-4.1768 1.8701-3.7401 5.7788-0.9086 4.2463-4.0485 9.1691 0.6931 1.7998 9.8039-3.466 12.344-1.9745 6.3905-8.0041 0.303-3.7163-2.5747-4.3515-1.8179-4.5904-1.4391z" clip-rule="evenodd" fill="#E2CC85" fill-rule="evenodd"/>
<path d="m41.43 50.027s-1.1071 0.5069-2.9952 0.3901c-0.5464-0.7338-4.3734-1.0775-4.3734-1.0775s-0.4777-0.1455-1.3225 0.2039c-0.8501 0.3456-1.6542 0.303-2.4057 0.4893-0.7515 0.1862-1.4976-0.7922-2.0736-0.9961-0.576-0.2155-1.3398-0.7339-1.3398-0.7339l-1.6128-0.1574-3.2387-1.369-5.1452-5.126-1.3981 2.1888-0.4312 2.7087 1.5555 3.2099 4.1883 3.8154 8.1669 2.0736 4.8407-1.4261 6.0642-2.5632 1.5206-1.6305z" clip-rule="evenodd" fill="#F1D789" fill-rule="evenodd"/>
<path d="m12.412 31.911 1.0368-3.1396 1.2353-2.0275 3.9782-0.3322-1.1942 3.4836-3.3258 5.9186 1.3804 5.2835-2.4464 1.223-0.7519-1.1531-0.6056-2.6446-0.0407-2.971 0.7339-3.6407z" clip-rule="evenodd" fill="#F4ECB4" fill-rule="evenodd"/>
<path d="m16.877 49.812-0.763-1.066s-0.2039-0.5069-0.0871-0.9496c0.1152-0.4485 0.0986-0.4777 0.0407-0.6467-0.058-0.1689-0.5476-0.7515-0.5184-1.2526 0.0288-0.5069-0.0407-0.6758 0.3317-1.0775 0.3902-0.3901 0.2738-1.066 0.2738-1.066l0.5069 0.3145 0.1152-0.1747s0.1863 0.1456 0.1863 0.3729c0.0407-0.3145-0.1283-1.771 0.2561-2.1028s1.066 1.5552 1.066 1.5552l-0.4194-2.7379-1.0779-2.8074-1.9165-2.5632-0.1152-2.8255v-0.2446s-0.8797 1.3517-1.1243 2.4192c-0.1748 0.7338 0.2446 1.6251 0.1574 2.6795-0.0703 1.0487-0.1574 0.9669 0.0987 1.3824s0.8797 1.2699 0.6351 1.8874c-0.2154 0.5303-0.9496 0.1574-0.9496 0.1574s-0.1456 0.4309-0.3437 0.5883c-0.0699-0.2561-0.1455-0.4193-0.2853-0.576-0.0119 0.0991-0.0407 0.2331-0.0407 0.2331s-0.1283-0.402-0.2565-0.9089c-0.1744-0.6755-0.361-1.5667-0.5299-2.0444-0.0699 0.2737-0.2447 1.1066-0.2447 1.1066l0.0991 1.2818 0.4777 1.7591 0.4608 1.152 0.4485 1.4097 0.3898 0.9469 0.3145 0.7224 0.2738 1.6254 1.3221 1.3978 0.705 0.3149 0.513-0.2627z" clip-rule="evenodd" fill="#F3E19D" fill-rule="evenodd"/>
<path d="m13.105 29.348s-0.9496 1.6128-1.223 3.2386c-0.2734 1.6259-0.5184 3.3439-0.3456 5.5573 0.1747 2.2314 0.5069 3.6 0.7749 4.5788 0.4608 1.6255 1.6543 3.8857 1.6543 3.8857l0.0407-0.0876c-0.2006-0.3802-0.3607-0.7805-0.4777-1.1942-0.1575-0.6175-0.2158-1.3513-0.3614-1.6834-0.1282-0.3318-0.3436-0.6175-0.4485-1.0253-0.0991-0.3902-0.1152-1.0076-0.4193-1.4677-0.1283-0.1866-0.2857-0.6758-0.3322-1.165-0.0583-0.7342 0.0292-1.5556-0.0407-2.2311-0.1282-1.1243-0.2154-1.8873-0.099-2.476 0.1163-0.5887 0.7226-2.2598 1.0955-3.5881 0.2446-0.8506 0.0987-1.5671 0.5472-2.3071 0.4485-0.7338 0.7227-1.3805 0.8214-1.829 0.1152-0.4078-1.1881 1.7941-1.1881 1.7941h0.0015z" clip-rule="evenodd" fill="#F2E8B0" fill-rule="evenodd"/>
<path d="m17.611 28.701s-0.4893 0.1459-0.7223 0.4021c-0.2331 0.2446-0.3322 0.4486-0.6467 0.8622-0.3145 0.4135-0.3322 0.7514-0.5887 1.2698-0.2561 0.5069-0.8214 1.2699-0.8912 1.5437-0.0699 0.2738-0.1863 1.5551-0.3318 2.1611-0.1283 0.6059 0.1455 1.3517 0.1455 1.3517l0.3318-0.0703s0 0.4312 0.3322 0.7227c0.3317 0.2853 0.3901-0.9673 0.3901-0.9673l1.2407-4.1883 1.8697-1.2699 0.2039-1.0253-1.3332-0.7922z" clip-rule="evenodd" fill="#F5EEC0" fill-rule="evenodd"/>
<path d="m18.519 30.6s-0.8797 0.058-1.3106 0.3728c-0.1747 0.1279-0.2446 0.2327-0.4308 0.3902-0.3437 0.2853-0.6935 0.5476-0.8621 0.9216-0.1866 0.3725-0.3905 0.9377-0.5303 2.0037-0.0584 0.4485-0.0584 0.8621-0.0991 1.2234-0.0583 0.4892-0.1455 0.8794-0.099 1.152 0.0583 0.5591 0.6351 0.8506 0.6912 1.4853l1.1942-0.6055 1.1244-4.4333 2.3884-1.4976-1.3516-1.5145-0.7162 0.4992 0.0015 0.0027z" clip-rule="evenodd" fill="#E6DB9D" fill-rule="evenodd"/>
<path d="m12.221 60.453c5e-3 -0.0438 0.01-0.0876 0.015-0.1325 0.1743-1.4976 0.2039-2.6327 0.3317-3.3435 0.1863-1.0076 0.3145-1.3824 0.2854-1.7595-0.0408-0.6055-0.0872-1.0483-0.0288-1.5145 0.0871-0.6174 0.6931-1.3513 0.6758-1.8581-0.0119-0.4021-0.2158-0.664-0.3905-0.9086-0.1748-0.2446-0.3145-0.4485-0.3145-0.4485s1.1942-0.8214 1.1827-4.1303c0.0244 0.0069 0.0478 0.0167 0.0699 0.0292l0.5883 1.6715 0.402 0.4893 1.5437 2.8776 1.9864 1.9285 2.9357 1.9745 1.8409 2.0034 0.1862 5.3418-2.4057 3.1223-0.394 0.7135c-3.1301-1.5714-6-3.6136-8.5102-6.0561z" clip-rule="evenodd" fill="#E5CB7A" fill-rule="evenodd"/>
<path d="m19.566 65.563s0.0407-0.6639 0.5883-1.0951c0.0875 0.1455 0.1455 0.2857 0.1283 0.3901 0.099-0.1743 0.7921-1.2929 2.3592-1.5844 1.5672-0.2853 1.9458-1.4269 1.9458-1.4269l3.3258-3.0232 3.8039-3.501 4.6253-1.6254 2.1615-0.5303s0.0407 0.1574-0.0407 0.5068c0.4017-0.0288 1.2929-0.2327 2.2192-0.5591 0.3728-0.1455 0.7226-0.2039 0.9089-0.0115 0.2738 0.2561 0.3145 0.8621 0.3318 1.2231 0.4485-0.0991 0.9669-0.53 1.3824-0.4893 0.6643 0.0699 1.2526 0.8506 1.9284 0.8506 0.8913 0 1.2929-0.5476 1.9165-0.9788 0.3729-0.2561 0.9086-0.576 1.2116-0.7922 0.7223-0.5303 8.365-2.8662 8.365-2.8662l2.6796 0.1747 0.4312 2.8777-0.2304 7.5226c-0.0284 0.0273-0.0568 0.0557-0.0856 0.0829l-12.184 6.3633-16.888 2.5889c-3.783-0.6181-7.4337-1.8738-10.796-3.7136l-0.0864-0.384-0.0016 3e-4z" clip-rule="evenodd" fill="#D8C173" fill-rule="evenodd"/>
<path d="m13.246 61.41c0.24-0.5019 0.4558-0.9216 0.4938-1.0717 0.03 0.3026 0.0849 0.9665 0.1955 1.6723-0.2322-0.1974-0.462-0.3973-0.6893-0.6006z" clip-rule="evenodd" fill="#F1D789" fill-rule="evenodd"/>
<path d="m25.577 68.489 2.1842-0.6075 0.1862 0.0584s0.0991 0.0584 0.0991 0.2561c0.2738-0.157 0.5069-0.1282 0.6759-0.2327 0.0871 0.1863 0.1743 0.8037 0.5591 0.8794 0.4016 0.0875 0.8329-0.1747 1.2698-0.5065 0.4309-0.3437 0.9216-0.7749 1.293-0.9496 0.1362 0.2505 0.2569 0.5091 0.3613 0.7745 0.4892-0.3902 1.3398-1.9745 2.5513-1.9457 0.3502-0.8276 0.9352-1.5343 1.6827-2.0329 1.1244-0.763 1.829-0.8214 2.7087-0.7515 0.3495-0.4539 0.78-0.839 1.2699-1.1359 0.1456 0.0584 0.5476 0.303 1.0487 0.0699 0.5069-0.2327 1.0775-1.1359 1.829-1.2522 0.405-0.0558 0.8167 0.0307 1.1651 0.2446 0 0 2.1888-2.1731 3.699-2.8954-0.0583-0.1747-0.1747-0.8329 1.5959-2.2894 0.0991 0.0876 0.0292 0.3322 0.0991 0.3456 0.0288 0 0.4608-0.1862 1.0076-0.6059 0.6759-0.5065 1.4853-1.0368 1.9746-1.1824 0.9216-0.2738 1.8992 0.2853 1.8992 0.2853 0.0832-0.0583 0.1758-0.1017 0.2738-0.1282 0.2327-0.0407 0.4017-0.0699 0.5299-0.1152-0.0115 0.303 0.1575 0.8214 0 1.2699 0.1824 0.1025 0.3756 0.1846 0.576 0.2446-0.0986 0.2154-0.3145 0.763-0.6754 1.0253 0.3026 0.1455 0.3433 0.3145 0.7745 0.4608-0.1747 0.2446-0.4608 0.6643-0.5883 0.9216-0.1282 0.2737-0.5886 1.4096-0.7926 1.8405-0.2154 0.4312-0.5064 1.2234-0.6466 1.3824-0.1402 0.1589-0.6467 0.8329-1.0368 1.1646 0.3456-0.1282 1.7595-0.5591 2.3593-0.7223-0.1786 0.2619-1.0837 1.6048-1.9538 2.8962-8.4282 5.0516-18.623 6.2318-27.982 3.2394l0.0026-0.0058z" clip-rule="evenodd" fill="#E0CD81" fill-rule="evenodd"/>
<path d="m18.663 30.443s-0.5065 0-0.6056 0.0699c-0.099 0.0699 0.5069 0.2158 0.6932 0.2857 0.1862 0.0699 0.5883 0.3902 0.6931 0.6467 0.0991 0.2446 3.6407 1.6715 3.6407 1.6715l2.5048-0.1283 0.8636-1.1931-1.6427-1.4388 1.152-3.3961-1.526 0.2446-3.6699 2.1888-1.8409 0.705-0.2623 0.3441z" clip-rule="evenodd" fill="#DFC57C" fill-rule="evenodd"/>
<path d="m24.162 31.567c0.0737 0.1193 0.2054 0.1903 0.3456 0.1863 0.5184 0 0.9957 0.1282 1.1938 0.3901 0.3322 0.4197 1.2526 1.7595 1.2526 1.7595l2.2019 0.7922 0.1421-2.5928-2.4058-1.6715-2.7379 1.0076v0.1282h0.0061l0.0016 4e-4z" clip-rule="evenodd" fill="#E5CC7C" fill-rule="evenodd"/>
<path d="m23.732 32.528s0.4017 0.0292 0.9086-0.1574c0.5068-0.1867 1.3397-0.5883 1.7011-0.4309 0.5065 0.2154 0.4016 0.8913 0.9496 1.4976 0.3318 0.3729 0.9377 0.3613 1.2814 0.7634 0.3437 0.402 1.526 0.2154 1.526 0.2154l0.4485 2.4192-1.7998 2.3071-0.5886 2.8658h-2.4338l-2.2234-0.8821-1.0952-2.6496 0.5476-2.6795 0.778-3.269z" clip-rule="evenodd" fill="#D2C281" fill-rule="evenodd"/>
<path d="m28.437 32.645c0.0604 0.0186 0.1231 0.0284 0.1862 0.0291-0.0699 0.0584-0.2158 0.1863-0.1574 0.5184 0.0584 0.3322 0.2446 0.7515 0.0875 1.0077 0.1254 0.1371 0.2189 0.3002 0.2738 0.4777 0.0991 0.2857 0.1283 0.5475 0.7746 0.5886-0.0933 0.0574-0.1793 0.1259-0.2562 0.2039 0 0 0.4485 0.3902 0.6759 0.7511 0.2327-0.0099 0.8502-0.2019 0.8502-0.2019l0.1282 0.0875 0.2738-0.1152s-0.2561-0.0991-0.0699-0.7223c0.1747-0.5476 0.3322-0.5184 0.3456-0.5591 0.0135-0.0407 0.1283-0.6175 0.1283-0.8506 0.0871-0.3026 0.157-1.223 0.157-1.223l-0.1862-2.0329-1.0483-0.6351-0.8525-0.8229-0.8041 1.5144-0.5295 0.528-0.0408 1.3106 0.0638 0.146z" clip-rule="evenodd" fill="#E2C270" fill-rule="evenodd"/>
<path d="m30.965 30.944s0.1863 0.5299 0.2566 0.9377c0.0247-0.0793 0.0384-0.1616 0.0407-0.2446 0 0 0.1455 0.8041 0.1743 1.1362 0.0584-0.0119 0.1152-0.0291 0.1283 0.0288 0.013 0.058 0.1459 0.7051 0.1152 1.066 0.2425-0.4002 0.5782-0.7358 0.9784-0.9784 0.2331-0.1459 0.5069-0.303 0.7926-0.3149 0.4485-0.0115 0.7745 0.2857 1.3106 0.2857 1.2929 0 2.4641-0.9496 3.3262-1.2407 0.6347-0.2158 1.1823-0.3729 1.5667-0.7227 0.1866-0.157 0.5188-0.5065 0.8214-1.0253 0.402-0.6912 0.8213-1.2929 1.241-1.3685-0.1899 0.0348-0.383 0.0485-0.576 0.0407 0 0 0.1283-0.1283 0.3456-0.303 0.2174-0.1747 0.4777-0.3902 0.8502-0.3902 0.6643 0 0.9961 0.0987 1.369 0.0987 0.3728-0.0115 0.5883-0.0987 0.5883-0.0987s0.3905 0.2738 1.2699 0.2738c0.8797 0.0116 1.468 0.0872 1.9284 0.1283s2.0037-0.1283 2.4465-0.1152c0.2886 0.0111 0.5721 0.0805 0.8332 0.2039l-1.4273-4.1472-5.1271-4.4813-3.0525 2.1612-4.6955 4.6951-4.5435 1.6835-0.9496 1.066v1.6251h-0.0116z" clip-rule="evenodd" fill="#CCB360" fill-rule="evenodd"/>
<path d="m41.157 28.567s0.1282-0.1278 0.3433-0.3025c0.215-0.1748 0.4781-0.3906 0.8505-0.3906 0.664 0 0.9961 0.0991 1.369 0.0991 0.3729-0.0115 0.5883-0.0991 0.5883-0.0991s0.3909 0.2734 1.2699 0.2734c0.8797 0.0116 1.468 0.0872 1.9284 0.1279s2.0037-0.1279 2.4465-0.1152c0.2886 0.0109 0.5719 0.0802 0.8329 0.2039l-0.6467-1.8701-0.7511-1.4269-2.1438-2.3478s-2.5728-1.5145-2.5924-1.526c-0.0115-0.0115-0.8913-0.2446-0.8913-0.2446l-2.3301 1.4097-2.1143 5.47-0.0407 1.152 1.3686 0.6467c0.3436-0.576 0.7227-1.0368 1.0779-1.0952-0.3207 0.035-0.5649 0.0353-0.5649 0.0353z" clip-rule="evenodd" fill="#D5B457" fill-rule="evenodd"/>
<path d="m41.128 28.957c-0.2039 0.0116-0.3724-0.0291-0.4193-0.1747-0.1747-0.4892-0.3145-0.5591-0.4608-0.5591s-0.3437 0.3145-0.4608 0.3433-0.2561-0.3609-0.2561-0.3609l-0.1283-0.0584s-0.7515 0.4892-1.2814 1.066c-0.5299 0.5767-1.3981 1.5556-1.7883 1.7299-0.3901 0.1743-1.7303 0.2331-2.1888 0.3321-0.4585 0.0991-0.9669 0.4313-1.0368 0.5069-0.0698 0.0757 0.2043 0.1571 0.245 0.2327 0.0407 0.0699-0.4489 0.0407-0.4896 0.1152-0.0288 0.0584 0.1152 0.3902 0.1867 0.5591 0.1249-0.0621 0.2621-0.0959 0.4016-0.099 0.4485-0.0116 0.7749 0.2857 1.3106 0.2857 1.2933 0 2.4641-0.9497 3.3262-1.2411 0.6352-0.2155 1.1827-0.3729 1.5671-0.7223 0.1863-0.1571 0.5184-0.5069 0.8214-1.0253 0.2212-0.3552 0.437-0.6874 0.6528-0.932l-0.0012 0.0019z" clip-rule="evenodd" fill="#D2B257" fill-rule="evenodd"/>
<path d="m22.582 57.786s-0.1152-0.4312-1.1827-1.5437c-0.303-0.3145-0.4892-0.576-0.6931-0.763-0.5069-0.4781-0.8041-0.6059-1.1651-0.8797-0.7922-0.5883-1.6543-0.5883-2.3182-1.3106s-1.4377-2.1024-1.9753-3.5129c-0.5299-1.4096-0.6758-1.8581-0.6758-1.8988s0.1459-0.3145 0.3321-0.2738c0.1863 0.0407 0.1863 0.4016 0.2331 0.4892 0.0928 0.1429 0.198 0.2773 0.3145 0.4016 0.2738 0.3149 0.6639 0.6912 0.8621 1.2527-0.0407-0.4777-0.2039-1.0077-0.2039-1.0077s1.0253 0.6467 1.8989 1.3222c0.8797 0.6758 1.2407 0.9089 1.4976 1.3397 0.2569 0.4309 0.862 1.5671 1.152 1.8993 0.2899 0.3322 4.2624 1.5844 4.2624 1.5844l1.8896 1.4089 0.9381 2.0563-0.7342 1.152-1.4096 0.303-2.2894-1.0253-0.7331-0.9938z" clip-rule="evenodd" fill="#D2B159" fill-rule="evenodd"/>
<path d="m17.49 50.703s0.4777 0.763 1.6428 1.4853c1.0487 0.6352 2.7087 1.2119 4.1887 1.5556 0.8501 0.2039 1.7007 0.361 2.4637 0.3729 2.0563 0.0288 3.4717-0.5591 5.2255-0.7515 0.9496-0.0991 2.1147-0.1747 3.3262-0.4608 1.5552-0.3729 2.4756-0.7926 3.7282-1.3824 0.9086-0.4193 1.7419-0.7338 2.4173-1.1359 0.9496-0.5591 1.6428-1.1823 2.4469-1.3685-0.0991 0.2737-0.2039 0.763-0.9961 1.2698 0.4193-0.0119 0.9961-0.0407 0.9961-0.0407s-0.5591 0.3318-1.5437 1.0775c-0.606 0.4608-1.4097 1.2407-2.2311 1.7591-0.5303 0.3322-1.107 0.576-1.4857 0.775-0.9216 0.5068-1.2933 0.763-1.8988 1.3824 0.2154-0.0116 0.2331 0 0.2331 0s-0.7634 0.099-1.3106 0.3901c-0.1152 0-0.3149-0.0407-0.6644 0.0584-0.2737 0.0871-0.6351 0.2857-1.0076 0.3901-0.5303 0.1575-0.7046 0.0876-0.7046 0.0876l0.0872 0.1747s-0.6912-0.0119-0.9216 0.0115c0.0407 0.0115 0.0291 0.0292 0.0291 0.0292-0.0404 0.0068-0.0794 0.0205-0.1152 0.0407-0.1108 0.0718-0.2328 0.1249-0.3609 0.1571-0.0699 0.0115-0.1283 0.0115-0.2158 0.0291 0.0292 0.0699 0.2565 0.4608 0.3613 0.6912-0.0871 0.0584-1.3981 1.0487-1.3981 1.0487 0.0406 0.064 0.0739 0.1324 0.099 0.2039 0.0407 0.1279 0.0584 0.3145 0.0991 0.4017 0.0987 0.1747 0.1571 0.2039 0.1571 0.2039s-0.1571 0.0292-0.4313 0.0991c-0.2327 0.0584-0.5184 0.157-0.9216 0.2154-0.1237 0.0161-0.2481 0.0258-0.3728 0.0292 0.0583 0.1282 0.3145 0.6175-0.1575 1.1823-0.4719 0.5649-0.6174 0.6471-0.763 1.008-0.0732-0.0554-0.1512-0.1042-0.2331-0.1459-0.157-0.0699-0.3728-0.1743-0.4485-0.3145-0.0441 0.1868-0.1025 0.3698-0.1747 0.5476-0.1455 0.3901-0.361 0.7749-0.4017 1.066-0.1574-0.1747-0.4485-0.5184-0.8505-0.4485-0.4021 0.0699-0.7223 0.6174-0.7922 0.7749 0-0.0991-0.0699-0.1747-0.0872-0.0584-0.0119 0.1283-0.2331 1.4677-1.468 2.5513-0.0115-0.2738-0.0115-0.8797-0.0407-1.0775-0.1152 0.1152-0.2561 0.2853-1.0952 0.6467-0.8214 0.3609-0.6912 0.7223-0.6912 0.7223s-0.0699-0.576 0.3729-1.1828c0.4485-0.6055 0.7223-0.8912 0.7223-0.9377-0.0072-0.0473-0.0275-0.0917-0.0584-0.1282-0.0583-0.0584-0.1747-0.1283-0.1747-0.1748 0.0699-0.0288 0.763-0.3609 0.7223-1.0487-0.0407-0.6171-0.3026-0.9377-0.4892-1.1646-0.0288-0.0292 0.2742-0.2446 0.2331-0.3145-0.0292-0.0407-0.4017-0.3149-0.4485-0.4608 0.011-0.0871 0.0305-0.1729 0.0583-0.2562 0.0407-0.1282 0.0699-0.2158 0.0584-0.3029-0.0292-0.1456-0.1866-0.5476-0.2331-0.5883 0.0407 0.0115 0.3318 0 0.3318 0s-0.2327-0.3729-0.2738-0.5476-0.1283-0.6351-0.1747-0.7223c0.0991 0.0115 0.3437 0.0288 0.3437 0 0.0119-0.0876-0.2155-0.2331-0.1152-0.3456 0.0698 0.0115 0.2039 0.0699 0.3317 0.2331-0.0699-0.1866-0.1862-0.5476-0.4312-0.6931 0.1152-0.0407 0.5069-0.146 0.8506 0.0579 0.3436 0.2039 0.4608 0.4893 0.4608 0.4893s0.2039 0.1574 0.5187 0.3905c0.361 0.2853 0.821 0.6912 1.5552 0.9784 0.1575 0.0876 0.5592 0.0876 0.8506 0.0292 0.1269-0.0302 0.2486-0.0793 0.361-0.1455 0.0405-0.0239 0.0835-0.0435 0.1282-0.0584-0.0626-0.1257-0.1346-0.2465-0.2154-0.3613 0.0991 0 0.2154 0.0119 0.2154 0.0119s0.0699-0.1575-0.2446-0.4608c0.0699-0.0699 0.1575-0.1152 0.1575-0.2331-0.0991-0.0116-0.2738-0.1571-0.3145-0.2155 0.0579-0.0407 0.1455-0.1747 0.2446-0.2154-0.0876-0.0699-0.303-0.3613-0.4021-0.3901 0.0947-0.0352 0.1862-0.0781 0.2738-0.1283 0 0-0.4892-0.1282-0.6466-0.2331-0.1575-0.1152-0.3902-0.3145-0.53-0.3728-0.1459-0.0584-0.402-0.0872-0.5068-0.2039 0.0986 0.0291 0.2561 0 0.3728 0 0.0872 0 0.1283 0.0115 0.1571 0.0115-0.0115-0.0407-0.0115-0.1283 0.2158-0.1571 0.1093-0.0165 0.2154-0.0499 0.3145-0.099 0 0-0.2158-0.0116-0.4608-0.2447-0.245-0.233-0.4485-0.4193-0.5883-0.4485-0.1455-0.0291-0.4193 0.0991-0.5883 0.0872-0.2331-0.0288-0.3322-0.1455-0.3322-0.1455s-0.7745 0.0699-2.4929-0.9785c-1.4857-0.9089-2.1323-1.7126-2.1323-1.7126-0.1391-0.0505-0.2735-0.1129-0.4017-0.1866-0.5591-0.2911-1.334-0.8971-1.3106-1.6896l-0.0031 0.0057z" clip-rule="evenodd" fill="#C2A44D" fill-rule="evenodd"/>
<path d="m38.923 15.74c0.1347 0.0438 0.2545 0.1245 0.3456 0.2331 0.2737 0.3145 0.4485 0.9085-0.1748 1.5437 0.2446 0.0871 0.3456 0.1152 0.5591 0.0871-0.2154 0.2565-0.7046 0.8041-0.7338 1.2818-0.0292 0.3902 0.2154 0.5069 0.2154 0.5069s-0.3728 0.4308-0.3901 1.152c0.1761-0.1986 0.3688-0.3818 0.576-0.5476 0.4312-0.3437 1.0253-0.7338 1.4273-0.9784-0.0054 0.1025 0.0084 0.2051 0.0407 0.3026 0 0 0.7511-0.6175 1.3824-0.3433 0.2853 0.1282 0.1571 0.5299 0.1571 0.5299s0.3905-0.1455 0.6643 0.1283c0.2738 0.2737 0.6609 0.9799 0.8594 1.2537 0.0872 0.1283 0.3145 0.3729 0.5472 0.7515 0.3179 0.5301 0.5834 1.0899 0.7926 1.6716 0.0115-0.303 0.0871-0.7746 0.9496-0.4777 0.8621 0.3029 1.8405 0.9381 2.6619 2.1888 0.8214 1.2506 1.0249 2.6626 1.4385 3.2002 0.4193 0.5184 0.8505 1.3805 0.8797 1.7418 0.0292 0.3614-0.1283 1.5261 0.7338 4.6775 0.2446-0.9784 0.6175-3.1514 0.6175-3.1514l0.2039-1.9166 0.2331-5.9301-6.1924-5.1445-4.8407-3.5128-3.1515 0.303 0.1982 0.4489z" clip-rule="evenodd" fill="#CAA13E" fill-rule="evenodd"/>
<path d="m50.426 24.565s-0.0876-0.576-1.5437-1.5552c-1.4565-0.9669-2.5924-0.9669-3.6407-1.7883-0.8041-0.6467-1.6427-2.1324-2.1888-2.6216-0.5303-0.4834-0.6175-1.8816-0.6175-1.8816l1.7883-1.4976 2.6596-3.8442 2.2483-2.4756 1.0775 1.4976 1.4976 1.7591 0.8329 3.5301 0.303 5.1671-2.4192 3.7106 0.0027-4e-4z" clip-rule="evenodd" fill="#B59544" fill-rule="evenodd"/>
<path d="m52.229 30.758c0.0441-0.7836-0.0527-1.5687-0.2857-2.3182-0.384-1.1942-1.223-3.3146-1.6128-4.1088-0.1574-0.8797-0.0407-0.9496 0.1283-1.0487 0.1689-0.099 0.8041-0.4608 1.152-1.7299s1.4273-1.3106 1.4273-1.3106l0.6639-0.4892 1.008 2.5221 0.8794 2.2779 0.2738 1.7418 0.2039 1.4853-0.4777 3.14-2.3589 2.132-1.0015-2.2937z" clip-rule="evenodd" fill="#C89D3A" fill-rule="evenodd"/>
<path d="m19.312 65.756v-0.0645c0.049-0.0307 0.0923-0.0697 0.1279-0.1152 0.0407-0.0584 0.0702-0.1283 0.099-0.1456 0.0584-0.0291 0.3322-0.1152 0.4777-0.0875 0.1456 0.0276 0.5303 0.1862 0.7342 0.1747 0.4194-0.0115 0.9086-0.3321 1.6835-0.1862 1.1651 0.2154 1.4389 1.0076 2.1147 1.4561 0.4608 0.3149 0.9377 0.1747 1.0076 0.1747h0.1571c0.0291 0 0.2446-0.2446 0.3613-0.2327 0.2331 0.0115 0.2561 0.2039 0.4017 0.2154 0.3437 0.0407 1.008-0.1747 1.3401-0.0871 0.1999 0.0626 0.3566 0.2191 0.4194 0.4189 0.0698 0.2154 0.0115 0.4892-0.1575 0.6467-0.3609 0.3317-0.7046 0.6466-0.7745 0.9216 0.0889 0.0677 0.1742 0.14 0.2557 0.2165-2.8822-0.7343-5.6553-1.8446-8.2479-3.3024v-0.0034z" clip-rule="evenodd" fill="#CEB052" fill-rule="evenodd"/>
<path d="m50.33 54.117s0.9085-1.2115 1.2234-1.8117c0.3145-0.6186-0.9961-8.4522-0.9961-8.4522l2.6331-8.6269-0.0703-2.8079s0.1283-2.5923 0.4313-3.7167c0.3613 0.6467 1.4856 1.4273 1.7303 1.8409 0.1152-0.7926 0.5065-2.4641 0.4485-4.2466 0.2154 0.3317 0.7338 3.6698 0.7338 3.6698l0.5184 2.2484 0.6758 2.3884 0.7515 2.5225 0.4485 1.7419 0.2562 0.4193 0.2158 0.7338 0.2039 0.7926 0.5883 1.8582 0.3456 1.526 0.2738 2.7671c0.0595 0.2119 0.1024 0.4281 0.1282 0.6466 0.0115 0.303-0.0407 0.4777-0.0407 0.5303 0 0.0527 0.0991 0.664 0.0584 1.1244-0.0584 0.4608-0.0584 0.8214-0.4197 1.152-0.3614 0.3306-0.5883 2.3067-0.5883 2.3067l-0.6467-0.4309s0.1283-0.5886-0.1747-1.1243-0.8913-0.6467-1.2234-0.5591c-0.3318 0.0699-0.9957 0.1743-1.2115 0.3609-0.204 0.1863-0.7047 0.763-1.1651 1.0253-0.576 0.3456-1.5145 0.3729-2.0152 0.4892-0.5069 0.1152-1.066 0.4608-1.6547 0.8621-0.4615 0.2988-0.9489 0.5559-1.4561 0.768l-0.0023 0.0019z" clip-rule="evenodd" fill="#CCA847" fill-rule="evenodd"/>
<path d="m50.33 66.845s0.0384 0.025 0.1125 0.0657c4.1386-1.939 7.8467-4.6875 10.906-8.0832-0.0334-1.1789-0.0768-2.3873-0.1244-2.8351-0.0987-0.9496-0.0288-1.9165-0.058-2.4756s-0.3437-2.837-0.4892-3.4253c-0.1575-0.5883-0.4608-0.8797-0.5069-0.8797-0.0407 0.0119-0.2857 1.107-0.2857 1.3824 0 0.2753-0.0584 0.9381-0.0584 1.107-0.0407-0.0119-0.058-0.1152-0.058-0.1574-0.0583 0.1455-0.1282 0.402-0.1574 0.4312s0.0407-0.2446 0-0.3029c-0.0407-0.0584-0.1152-0.0292-0.0991-0.1748 0.0069-0.0863 0.0205-0.1719 0.0407-0.2561 0 0-0.1747 0.2561-0.3026 0.9086-0.1282 0.6466-0.1282 0.6643-0.1747 0.7223-0.0407 0.0702-0.2738 0.3029-0.2857 0.3905-0.0115 0.157 0.2158 0.3145 0.2331 0.4017 0.0115 0.1459-0.2039 0.8213-0.2738 1.152-0.0699 0.3306-0.0407 0.9784-0.1152 1.3105-0.0583 0.303-0.1152 0.4777-0.3145 0.6056 0.1456 0.0292 0.2853 0.0699 0.2853 0.0699s0.2039 0.8621-0.3145 1.5963c-0.1862 0.2561-0.2327 0.3728-0.4308 0.6059-0.3905 0.4309-0.6935 0.9216-0.7227 1.2407-0.0201-0.0941-0.0337-0.1896-0.0407-0.2857 0 0-0.6056 0.7051-0.8621 1.1071-0.3317 0.5184-0.7922 0.4892-0.9216 0.6175-0.1294 0.1282-0.1574 0.361-0.1152 0.5476-0.1152 0.0288-0.3318 0.0699-0.4777 0.5184-0.0699 0.2327-0.2446 0.4608-0.5184 0.6174-0.2738 0.1567-0.6059 0.204-0.7749 0.2447 0.1456 0.0407 0.2039 0.0407 0.2738 0.0871-0.0872 0.1456-0.4892 0.3729-0.9377 0.6643-0.4485 0.2738-0.6643 0.6755-0.7749 0.9378-0.1152 0.2446-0.2853 0.402-0.5591 0.4312 0.1152 0.0699 0.2857 0.2327 0.3728 0.2853-0.1282 0.0292-0.3456 0.0292-0.7338 0.3614-0.4078 0.3379-0.5476 0.437-0.7342 0.4661l-0.0023-4e-4z" clip-rule="evenodd" fill="#C39D3C" fill-rule="evenodd"/>
<path d="m42.223 69.544c0.2231-0.1564 0.4647-0.2844 0.7193-0.3813 0.9085-0.361 1.8697-0.4309 2.2483-0.5472 0.3613-0.1152 0.6466-0.2742 1.0951-0.3614-0.0119 0.1022-0.0218 0.1982-0.0326 0.2888-1.3223 0.4157-2.6688 0.75-4.032 1.0011h0.0019z" clip-rule="evenodd" fill="#D2BA6B" fill-rule="evenodd"/>
<path d="m58.985 45.647s-0.1862 1.0077-0.5184 1.6428c-0.3321 0.6351-0.6912 1.5145-0.6912 1.5145 0.0022-0.1982 0.0256-0.3955 0.0699-0.5887-0.4193 0.2446-1.4388 0.8333-1.728 1.0952-0.2738 0.2446-0.7342 0.6758-0.8506 0.8797 0.2738-0.8037 0.5591-1.526 0.606-1.8581-0.4193 0.3029-2.377 1.9165-3.3961 2.9825l-3.1749 2.5689c-0.3664 0.1977-0.7437 0.3744-1.1301 0.5292-0.5472 0.2327-1.1939 0.4308-1.6716 0.6175 0.1283-0.3437 0.3318-0.6471 0.6175-0.9381 0.303-0.2854 1.2115-1.2699 1.3513-1.728 0.1282-0.4777 0.1574-0.7631-0.0115-1.1651-0.1575 0.0407-0.5184 0.0584-0.763 0.1283-0.2446 0.0698-0.5069 0.3317-0.5069 0.3317s0.1862-1.066 0.5883-2.0736c-0.303 0.0116-0.8214 0.0987-0.8214 0.0987s0.7223-1.2115 1.9584-2.0559c-0.3786 0.0806-0.749 0.1955-1.1067 0.3433-0.7223 0.303-1.5145 0.7515-2.1028 0.9961 0.3318-0.4608 2.6619-3.7863 4.0485-6.8855 1.3824-3.0931 1.8989-3.8853 2.2019-5.5454 0.157-0.8213 0.1152-2.0352 0.157-3.1223 0.0408-1.0779 0.1748-2.0448 0.0876-2.6914 0.361 0.4485 1.7126 1.7126 1.7591 4.5381 0.0407 2.8251-1.2929 6.6409-2.7087 8.6968 0.3456 0.0991 1.2411 0.2158 2.1611-1.3824 0.9201-1.5982 0.9089-2.0444 1.2411-2.7087 0.0407 0.3321 0.0288 0.4485 0.0288 0.4485s1.3402-1.6251 1.9749-3.6699c0.1283 0.8797 0.5069 1.6547-0.0875 3.2682-0.53 1.4562-1.2231 1.8117-1.2231 1.8117s0.3437-0.0583 0.8502-0.3613c0.0876 0.2154 0.0703 0.4608 0.2158 0.5476s0.3437 0.2331 0.3729 0.3728c0.157-0.233 0.4016-0.5303 0.4777-0.7514-0.0584 0.4608-0.0991 2.4756 0.1152 3.5009 0.4489-0.0407 0.9089-0.0699 1.2234-0.8798-0.2154 0.7926-0.2154 1.2699-0.0699 1.9458 0.2389-0.1629 0.4543-0.4543 0.4543-0.4543l0.0015 0.0011z" clip-rule="evenodd" fill="#C0993A" fill-rule="evenodd"/>
<path d="m43.849 13.538s-0.4485 0.1863-1.2115 0.1863c-0.6639 0-0.4777-0.2562-1.5145-0.2562-1.5959 0-7.1708 0.9216-8.1496 0.9086-0.6352-0.0115 2.1435 0.2738 2.1435 0.2738l7.1013 0.099 1.4269-0.1152 0.5303-1.079-0.3264-0.0173z" clip-rule="evenodd" fill="#A88F33" fill-rule="evenodd"/>
<path d="m25.434 27.42s-0.9089 0.6931-1.2933 1.2234c-0.3844 0.5304-0.5883 0.8794-1.0253 1.3106 0.1026 4e-3 0.2051-0.0099 0.303-0.0408 0 0 0 0.1153-0.0699 0.1457 0.1223-0.0137 0.2443 0.0286 0.3318 0.1152-0.1283 0.0699-0.4777 0.4197-0.2039 0.8333 0.2039 0.3144 0.6351 0.3432 0.6351 0.3432s-0.099 0.2857 0.3145 0.2566c0.8913-0.0407 1.8874-0.4313 2.3474-0.3322 0.4608 0.1152 0.7227 0.1574 1.0487 0.7227 0.3456 0.5591 0.6467 0.6465 0.6467 0.6465s0.2039-0.5186 0.1574-1.2932c0.1672-0.4175 0.2599-0.8611 0.2738-1.3107l-0.303-2.2309-1.3221-1.6719-1.7126 0.9495-0.1283 0.3318v0.0012z" clip-rule="evenodd" fill="#E3C571" fill-rule="evenodd"/>
<path d="m27.06 27.087s0.1283 0.3029 0.6644 0.3317c-0.0584 0.1283-0.0584 0.146-0.0407 0.2446 0.0115 0.0991 0.0288 0.2446 0.0288 0.2446 0.059-0.0285 0.1123-0.0675 0.1574-0.1152 0.0292 0.1283-0.0292 0.3318 0 0.4777 0.018 0.0888 0.0473 0.1749 0.0872 0.2562 0.0085-0.02 0.0182-0.0393 0.0292-0.058 0.0115-0.0292 0.1152 0.3145 0.402 0.576-2e-4 -0.0402 0.0097-0.0798 0.0288-0.1152 0.0044 0.073 0.0286 0.1435 0.0699 0.2039-0.0215-0.0102-0.0411-0.024-0.058-0.0407 0 0 0.0288 0.9216 0.1862 1.3981 0.0264-0.0308 0.0498-0.0639 0.0699-0.099 0-0.0288-0.0115 0.2565-0.0407 0.4608-0.0407 0.2039-0.0115 0.4892-0.0115 0.4892 0.105-0.0827 0.2205-0.1513 0.3433-0.2039 0.1747-0.0703 0.4608-0.2857 0.6351-0.7634 0.1012-0.2706 0.1792-0.5492 0.2331-0.8329 0.0564 0.1084 0.0952 0.225 0.1152 0.3456 0.0119 0.1455 0.2857 0.0699 0.2857 0.0699l0.0584-0.6352 0.3456-1.4388 0.3145-0.8913 1.5145-2.3589 2.7364-2.1074 2.3885 0.5476 2.0152-2.7379-3.4718-2.0855-3.2855 0.3437-2.9817 4.1299-2.3881 3.7459-0.4313 0.6179z" clip-rule="evenodd" fill="#D8B65B" fill-rule="evenodd"/>
<path d="m44.265 21.111s-0.2039 0.0407-0.7921 0.3456c-0.5883 0.3049-0.9961 0.4016-1.2235 0.8501-0.2273 0.4486-0.2446 0.8041-0.2446 0.8041s0.4021-0.1747 0.6352-0.2331c0.2446-0.0579 0.5184-0.0407 0.4892 0.0584-0.028 0.0679-0.0669 0.1309-0.1152 0.1863 0 0 0.4608-0.0116 0.4485 0.2158-0.0123 0.2273-0.0872 0.4777-0.1743 0.5883-0.0876 0.1152-0.4486 0.2856-0.4893 0.4197-0.099 0.2738 0.0407 0.2853-0.0119 0.5065-0.0407 0.2158-0.2327 0.6351-0.862 1.3689-0.6467 0.7342-0.9216 1.2526-0.9216 1.2526s-0.3145-0.5883-0.4777-1.0951c-0.1152 0.0579-0.7339 0.4016-0.7339 0.4016l-1.4331-4.992 0.0288-0.3321s0.1283-0.1571 0.1575-0.4485c-0.2154-0.0699-0.2446-0.1283-0.5303-0.4017s-0.5184-0.606-0.9957-0.8333c-0.0699-0.1282-0.1575-0.3026-0.5069-0.3729-0.3495-0.0702-0.5591-0.1278-0.5591-0.1278s0.1862-0.0703 0.2738-0.2158c-0.2158 0.0291-0.3902 0.099-0.8621 0.0875-0.4777-0.0119-0.5303-0.0292-0.7922 0.0115s-0.576 0.1575-0.6931-0.2446c-0.1283-0.099-0.4021-0.0115-0.6352 0.3318-0.233 0.3433-0.3144 0.6175-0.763 0.7515-0.0315 0.1977-0.1007 0.3875-0.2039 0.5591-0.1282 0.2158-0.3321 0.4312-0.6059 0.7515-0.4312 0.5069-0.3614 1.3398-1.0487 1.9749-0.6931 0.6347 0.1152-1.7595 0.1152-1.7595l1.1067-2.6496 3.1515-3.0816 4.8933-0.3318 0.4777 2.5344 2.3884 0.8214 1.5088 2.3009 7e-4 -3e-3z" clip-rule="evenodd" fill="#D3AE4D" fill-rule="evenodd"/>
<path d="m45.042 21.67-2.0563-2.9649-1.4388-1.107s-1.0253-1.887-1.0952-1.9454c-0.0584-0.0407-1.0253-0.1455-1.6427-0.1862l0.1152 0.2853c0.1347 0.0438 0.2545 0.1245 0.3456 0.2331 0.2737 0.3145 0.4485 0.9085-0.1748 1.5437 0.2446 0.0871 0.3456 0.1152 0.5591 0.0871-0.2154 0.2565-0.7046 0.8041-0.7338 1.2818-0.0292 0.3902 0.2154 0.5065 0.2154 0.5065s-0.3728 0.4313-0.3901 1.152c0.1761-0.1985 0.3688-0.3817 0.576-0.5476 0.4312-0.3456 1.0253-0.7342 1.4273-0.9788-0.0055 0.1027 0.0083 0.2054 0.0407 0.303 0 0 0.7511-0.6175 1.3824-0.3437 0.2853 0.1283 0.1571 0.5303 0.1571 0.5303s0.3905-0.1455 0.6643 0.1283 0.6639 0.9784 0.8621 1.2526c0.0871 0.1282 0.3145 0.3729 0.5472 0.7511 0.318 0.5302 0.5834 1.0901 0.7926 1.6719 0.0115-0.2331 0.0583-0.5591 0.4608-0.5591l-0.6118-1.0951-0.0023 0.0011z" clip-rule="evenodd" fill="#CAA13E" fill-rule="evenodd"/>
<path d="m14.215 30.093s-0.1456-0.3613 0-1.066c0.1455-0.7046 0.3728-1.0368 0.4485-2.0736 0.0756-1.0368 0.7515-2.3301 0.7515-2.3301l1.8697-0.8501 1.3225 0.3609 0.3901 1.771-1.6719 0.9216s-0.0872 0.3902-0.5591 0.7047c-0.472 0.3145-1.1244 0.5591-1.2814 0.8797-0.0939 0.1964-0.1624 0.4038-0.2039 0.6175 0 0-0.4777-0.0991-0.7631 0.2154-0.3029 0.3206-0.2914 0.606-0.3029 0.8506v-0.0016z" clip-rule="evenodd" fill="#F4EFC8" fill-rule="evenodd"/>
<path d="m17.988 29.621s-0.1575 0.0991-0.2738 0.3456c-0.1152-0.1862-0.3906-1.2933-0.4021-2.2894s-0.071-1.243 0.1594-1.5863 1.1339-0.705 1.0057-1.3233c-0.1283-0.5882-0.6644-0.8328-1.3225-0.6639-0.4608 0.1152-0.8037 1.0952-1.2814 1.5844-0.3614 0.3729-0.7922 0.3145-0.9086 0.5184-0.1574 0.2738-0.0119 0.5476-0.0583 0.7223-0.012 0.0584-0.1575 0.3729-0.4198 0.7515-0.5299 0.763-1.4269 1.8409-1.5436 2.8078 0.0407-0.5476 0.0119-0.5591 0.1574-1.1651l-0.0876-0.1455 0.576-1.8874 0.3729-1.5552 0.8333-2.6042 1.4676-2.6619 1.4274-1.5963 1.4853 0.0991 0.1747 2.231 0.8506 4.1887 1.7882 2.2018-2.8661 1.9289-1.1359 0.099h0.0012z" clip-rule="evenodd" fill="#EBCC73" fill-rule="evenodd"/>
<path d="m18.878 30.413s-0.2446 0.0584-0.3321 0.0119c-0.0876-0.0464-0.1743-0.099-0.1455-0.1574s0.1862-0.1571 0.1862-0.2039c0.0067-0.088-0.0578-0.1654-0.1455-0.1747-0.1341-0.0173-0.1748 0.0699-0.1748 0.0699s-0.1282-0.0987-0.2327-0.1152c0.0618-0.0076 0.124-0.0116 0.1863-0.0119-0.161-0.073-0.3318-0.122-0.5069-0.1456 0.1455-0.0871 0.4312-0.3437 0.6175-0.3437 0.1862 0 0.3029-0.0288 0.2738-0.1278-0.0292-0.0991-0.1748-0.2446-0.3318-0.303 0.058-0.0699 0.0991-0.1747-0.0407-0.4608-0.1459-0.2853-0.0876-0.4777-0.0407-0.5472 0.0407-0.0876 0.1862-0.2446 0.2561-0.3437s0.1283-0.2331 0.2446-0.303c0.0584-0.0407 0.2446-0.1152 0.4312-0.1862 0.2039-0.0699 0.3729-0.1574 0.4893-0.0699 0.1282 0.0872 0.0698 0.2039 0.0698 0.2039s0.4021-0.1459 0.7631 0.0407c0.3613 0.1744 1.241 0.2853 1.241 0.2853l0.3153 0.6352-2.0855 1.7883-0.8621 0.4312-0.1747 0.0288-0.0012-0.0012z" clip-rule="evenodd" fill="#E5C66B" fill-rule="evenodd"/>
<path d="m21.774 27.49s-0.6467 0.4312-0.7922 0.5883c0.0872 0.0119 0.2327 0.0702 0.1743 0.1574-0.0699 0.0872-0.4892 0.3901-0.7223 0.6758-0.2446 0.2854-0.4777 0.6467-0.5591 0.8214-0.0872 0.1571-0.7515 0.6175-0.9784 0.6755 0.4777 0 1.4388-0.5883 1.7998-0.5883-0.0115 0.1747 0.0991 0.3729 0.303 0.3901 0.2039 0.0173 0.7922 0.1283 1.5844-0.3609 0.7921-0.4777 0.5303-0.8333 0.862-1.066 0.6352-0.4197 0.8913-0.7926 1.2407-1.0253 0.3495-0.2327 0.5303-0.2857 0.5303-0.2857s0.0116-0.1747 0.1152-0.157c0.0579 0.0066 0.1073 0.0447 0.1283 0.099 0 0 0.6059-0.4312 1.3824-0.5476-0.0181-0.0081-0.0326-0.0225-0.0407-0.0407 0 0 0.058-0.0291 0.0699-0.0583 0 0 0.0407-0.0584 0.0699-0.0292s0.0699 0.2446 0.1282 0.3321c0.1283-0.0583 0.3729-0.6059 0.3729-0.6059l0.5887-1.6835v-1.5379l-0.4608 0.0876-3.456 1.4676-2.0974 2.1731-0.2447 0.5184h0.0016z" clip-rule="evenodd" fill="#E6BD62" fill-rule="evenodd"/>
<path d="m31.723 19.946c0.187-0.0453 0.3662-0.118 0.5319-0.2158-0.0699 0.1867-0.0699 0.3906-0.3729 0.8333-0.303 0.4428-0.3145 0.5069-0.5591 0.9669-0.2446 0.4777-0.2738 1.1651-0.5069 1.4677 0.1045-0.0508 0.2166-0.0841 0.3318-0.0987 0 0-0.2327 0.2039-0.3318 0.4193s-0.2738 0.6639-0.7046 0.9381c-0.4309 0.2742-0.9788 0.4485-1.5671 1.0952-0.5887 0.6347-1.1943 1.4388-1.4976 1.728 0.1574-0.2738 0.3728-0.8214 0.4312-1.1823 0.0584-0.361-0.0119-0.7926 0.0872-1.2699 0.099-0.4773 0.099-0.8214 0.576-1.6547 0.4769-0.8333 1.2933-3.7282 1.2933-3.7282l1.7591-0.5592 0.5303 1.2584-8e-4 0.0019z" clip-rule="evenodd" fill="#B6933F" fill-rule="evenodd"/>
<path d="m30.452 18.88s-0.5299 0.763-0.6755 1.4389c-0.1455 0.6758-0.0119 0.6174-0.099 0.9496-0.0522 0.2025-0.0522 0.4149 0 0.6175 0.1835-0.2957 0.4348-0.5434 0.733-0.7227 0.5011-0.3026 0.909-0.5184 1.152-0.7745 0.2446-0.2738 0.4485-0.7224 0.9785-1.066-0.2155-0.0292-0.5184-0.1283-0.576-0.1152 0.2158-0.2446 0.862-0.6175 1.5145-1.066 0.6466-0.4608 0.6059-0.6467 1.6546-1.1067-0.3437 0.0584-0.5069-0.0292-0.7926 0 0.1152-0.2446 0.5184-0.3613 0.9216-0.763s-0.2561-0.9961-0.2561-0.9961l-3.072 1.8582-1.4853 1.7476 0.0023-0.0016z" clip-rule="evenodd" fill="#C49937" fill-rule="evenodd"/>
<path d="m22.119 17.493 0.0699-0.5591 0.8798-1.4096 0.9204-2.4757v-3.3846l-0.0699-1.9572 0.1456-1.2818 0.1106-0.40742 0.1167-0.15744 0.7511 0.39014 1.0372 1.4097 0.0991 2.7206-1.008 4.2931-2.8777 3.14-0.1748-0.3207z" clip-rule="evenodd" fill="#DFC068" fill-rule="evenodd"/>
<path d="m24.407 5.7026s-0.4608 0.0119-0.5591 1.9284c-0.0983 1.9166-0.146 2.9242-0.2158 3.8738-0.0699 0.9496-0.2327 1.526-0.3145 2.0855s-0.1283 1.3221-0.3902 1.7883c-0.1152 0.2154-0.3613 0.8913-0.9381 1.3981-0.6467 0.5592-1.6128 0.9497-1.7591 0.9789-0.2565 0.0579-1.5556 0.1862-2.0855 0.4777-0.1862 0.099-0.5069 0.2154-0.8621 0.5475-0.705 0.6348-1.6427 1.7707-2.3186 3.1396-1.0368 2.0448-2.0736 7.8175-2.0736 7.8175l0.2331-0.3901s0.0292-0.5184 0.5476-1.4274c0.5069-0.9085 0.3613-1.928 1.066-3.6699 0.2738-0.6639 0.6175-1.526 1.0368-2.2602 0.6643-1.1942 1.468-2.2195 2.2779-2.7786 1.3221-0.9086 2.7786-1.1067 2.7786-1.1067l1.5671-1.0368s0.2738-0.5299 0.6351-1.1359c0.5065-0.8501 1.152-1.7998 1.293-3.1803 0.2158-2.0448-0.303-3.3844-0.2738-4.596s0.0407-2.1028 0.2857-2.3186 0.0695-0.1348 0.0695-0.1348z" clip-rule="evenodd" fill="#A88F33" fill-rule="evenodd"/>
<path d="m24.407 14.848s0.6912-1.7012 1.0076-3.2099c0.0584-0.303 0.1747-0.6056 0.2039-0.8502 0.1456-1.4273 0.1863-2.0156 0-2.7962-0.1455-0.576-0.7046-1.0952-0.9961-1.4976-0.2853-0.41972-0.4193-0.576-0.3609-0.66432 0.0583-0.08832 0.2853-0.23271 0.5065-0.21543 0.4751 0.01383 0.9238 0.22205 1.2411 0.576 0.4485 0.5184 0.8037 2.2779 0.8037 2.2779l0.3736 2.3217 0.9496 2.9241-3.7282 1.1363-8e-4 -0.0023z" clip-rule="evenodd" fill="#C99E3D" fill-rule="evenodd"/>
<path d="m30.9 13.078s-0.1283 0.058-0.361 0c0.0202 0.1939-0.0698 0.3828-0.2331 0.4892-0.2446-0.0991-2.5344 0.0991-2.5344 0.0991s-1.066-0.1866-1.3981-1.5963c-0.2327-0.9381 0.1747-2.231 0.0407-3.0816-0.2039-1.2526-0.4892-1.4976-0.5184-1.8874s-0.0584-0.48921-0.0584-0.73382c-0.1283-0.02918-0.2039-0.06989-0.3318-0.06989-0.0292-0.1152 0.0288-0.21581-0.0991-0.41971 0.0699 0.02918 0.5476 0.08755 1.1067 0.61747 0.4608 0.43123 0.4608 0.58829 0.5303 0.67584 0.0872 0.08717 0.7922 0.6912 1.0952 1.2933 0.303 0.60216 0.8913 2.5222 1.0253 2.8367 0.0407 0.1282 0.1282 0.2565 0.3456 0.5475 0.3379 0.4197 0.8329 1.1136 1.392 1.2288l-0.0015 8e-4z" clip-rule="evenodd" fill="#B58634" fill-rule="evenodd"/>
<path d="m27.127 7.2c0.3528 0.57005 0.6699 1.1615 0.9492 1.771 0.3437 0.77454 0.5476 1.4096 0.9788 1.928-0.2331-0.6754-0.6466-2.0038-0.8912-2.4756-0.2738-0.4992-0.8329-1.0372-1.0368-1.2234z" clip-rule="evenodd" fill="#A88F33" fill-rule="evenodd"/>
<path d="m23.167 16.777s-0.5883 0.1455-1.6835 0.7223c-0.3613 0.1862-0.7046 0.3433-1.0368 0.4892-0.8628 0.3902-1.7882 0.7507-2.5224 0.9496 0.0583 0.0699 0.0871 0.0987 0.0871 0.0987s0 0.2857 0.1575 0.4485c-0.0872 0.0876-1.2526 0.8798-0.9086 3.5302 0.2327-0.0872 0.5065-0.2039 0.5472-0.2039 0.0703 0.0119 0.0876 0.2039 0.1747 0.2039 0.0872 0 0.3729-0.1152 0.6759-0.5069-0.0115 0.1574-0.1863 1.7418 0.7515 2.8078 0.1747-0.2039 0.6174-0.8798 0.6174-0.8798l0.0116-0.2154s0.0407-0.7515 0.2857-1.4388c0.2449-0.6874 0.7223-1.1943 0.7223-1.1943l2.4925-3.5593-0.3721-1.2518z" clip-rule="evenodd" fill="#E6C367" fill-rule="evenodd"/>
<path d="m20.836 22.003c-0.1142 0.0807-0.2399 0.1435-0.3729 0.1863-0.0407-0.1455-0.0991-0.6467 0.2446-1.1359 0.402-0.5887 1.2814-1.3517 1.526-1.9584 0.1575-0.3905 0.0876-1.3689 1.4857-2.6216 1.3982-1.2526 1.9454-1.6834 1.9454-1.6834l2.2602-1.1359 2.7786 1.0952-1.3805 5.4105-1.0717 2.5344-4.2624-0.8037-3.153 0.1125z" clip-rule="evenodd" fill="#DCBA5A" fill-rule="evenodd"/>
<path d="m22.467 20.534 0.5303-0.664v-0.4719s0.5883-0.1575 1.223-0.8041c0.6348-0.6467 1.5145-1.8874 2.2894-1.8117 0.775 0.0875 0.8506 1.6834 0.8798 2.1323s0.1282 1.4677 0.2853 2.0156c0.1747 0.5476-1.8874 2.6212-1.8874 2.6212l-1.4004 1.066-1.92-4.0834z" clip-rule="evenodd" fill="#E9CE77" fill-rule="evenodd"/>
<path d="m24.107 26.062s0.4313-0.6759 0.1152-0.8214c0.1863-0.4193 0.5299-0.8621 0.5299-0.8621s0.2447-0.6055 1.0368-1.3513c0.7922-0.7457 1.2818-1.2411 1.4101-1.7418 0.0791-0.3263 0.1221-0.6604 0.1282-0.9961 0.0857 0.07 0.1773 0.1323 0.2738 0.1862 0.1283 0.0584 0.7339 0.5592 0.6467 1.5672s-0.4608 1.4273-0.4608 1.4273-0.361 0.3609-0.6171 0.5476c-0.2742 0.1862-0.3729 0.4016-0.8333 0.4193 0.0473-0.0376 0.1005-0.0672 0.1575-0.0876 0 0-0.4777-0.0579-0.7342 0.1748-0.2566 0.2327-0.8018 0.9496-1.0756 1.1654-0.2738 0.1747-0.576 0.3729-0.576 0.3729l-0.0012-4e-4z" clip-rule="evenodd" fill="#CDAE50" fill-rule="evenodd"/>
<path d="m43.474 14.732c-0.6882-0.2509-1.4114-0.3924-2.1435-0.4194-1.2234-0.0407-3.0117 0.0292-4.765 0.0407-1.8874 0.0115-3.6-0.6466-5.9766-0.763-0.3901-0.2331-1.3824-1.2526-4.4797 0.9086 0.1862-0.0116 2.2487-0.4777 2.9648 0.4197 0.7223 0.8912 0.5184 2.4057 0.4198 2.7667-0.1867 0.8041-0.7926 1.9749-1.0368 2.7963-0.2443 0.8214-0.1867 1.253-0.3614 1.829s-0.5591 0.8621-0.3322 1.526c0.303-0.1862 0.4608-0.1862 0.967-1.3221 0.5061-1.1359 0.402-1.9457 1.241-2.9069 0.8214-0.9669 2.1888-2.2894 2.7088-2.6216 0.5199-0.3321 4.6483-2.4756 8.971-0.4308 1.0425-0.1106 1.8228-1.8232 1.8228-1.8232z" clip-rule="evenodd" fill="#D2A83E" fill-rule="evenodd"/>
<path d="m27.851 13.939c-0.0042-0.0438-0.0139-0.0869-0.0288-0.1283-0.0404-0.0852-0.0935-0.1638-0.1574-0.2331 0 0-1.0253-0.1862-1.5437-0.1282-0.9089 0.099-1.7303 1.2234-2.1147 1.8002-0.3844 0.5767-0.862 1.4676-1.3804 1.928 0.0056-0.0448-0.0047-0.0903-0.0292-0.1282 0 0 0.0292 0.0407-0.0288 0.099-0.058 0.0584-0.0584 0.0872-0.0292 0.1152l0.0875 0.0872c0.0288 0 0.8329-0.3613 1.9281-1.3824 1.1651-1.066 2.0563-1.6128 2.5225-1.8002 0.2486-0.1056 0.5081-0.1825 0.7741-0.2292z" clip-rule="evenodd" fill="#C29637" fill-rule="evenodd"/>
<path d="m47.741 9.559s-0.1866 0.2327-0.4197 0.48924c-0.5184 0.5476-1.1943 1.1647-1.771 1.7998-0.5472 0.606-1.1647 1.0779-1.8582 1.8701s-1.4976 1.6716-1.7011 1.9281c-0.1863 0.2565-0.3318 0.6758-0.3318 0.8912-0.0991-0.0699-0.2154-0.1455-0.2154-0.1455 0.0489 0.0915 0.1075 0.1774 0.1747 0.2565 0.1455 0.2039 0.3725 0.4608 0.4892 0.6175 0.1432 0.1994 0.246 0.425 0.3026 0.6639 0.0699 0.0115 0.5184 0.0991 1.0779-0.8214 0.5595-0.9204 1.2929-1.928 1.2929-1.928l1.1651-1.7303 0.7342-1.4677 0.9216-1.6427 0.1401-0.78074h-0.0011z" clip-rule="evenodd" fill="#AC8132" fill-rule="evenodd"/>
<path d="m48.93 8.3827s-0.705 0.576-0.9788 0.92161c-0.2738 0.3456-0.9216 1.2526-0.9216 1.2526l0.2331-0.0292 1.1827-1.0483 0.4608-0.82138 0.0234-0.27379 4e-4 -0.00154z" clip-rule="evenodd" fill="#A88F33" fill-rule="evenodd"/>
<path d="m48.72 54.676s-0.0116-0.4777 0.2565-0.763c0.2738-0.2857 0.9669-0.705 1.6427-2.2778 0.6759-1.5729 0.7511-1.9281 0.7511-1.9281s-1.2115 1.0367-1.9584 1.2813c0.1748-0.3613 0.2738-0.6175 0.3614-0.8041-0.0991-0.0871-0.5184-0.1862-0.5591-0.2327 0.2327-0.2331 0.3609-0.804 0.8329-1.1826 0.6059-0.4608 1.7126-1.2526 2.5728-1.9584 0.8601-0.7058 2.5513-2.3474 2.7671-2.8251 0.1282 0.1862 0.157 0.3025 0.157 0.3025s-0.8501 1.1072-1.2929 1.8118c-0.3905 0.606-0.3613 0.9496-0.3613 0.9496l0.8041-0.3456s0.2327 0.8621-0.8214 2.1731c0.4608-0.1747 0.6466-0.07 0.9085-0.2159-0.4312 0.2742-1.0253 0.6471-1.5844 1.672-0.5475 1.0253-1.2933 2.2194-2.5513 2.9648-1.2234 0.7864-1.9284 1.3748-1.9284 1.3748l0.0031 0.0034z" clip-rule="evenodd" fill="#A67A2E" fill-rule="evenodd"/>
<path d="m45.562 15.338s-0.4777 0.9958-0.5476 1.7707c-0.0115 0.1867-0.0584 0.3322-0.0584 0.5476-0.0115 0.6931 0.0407 1.4681-0.1152 1.829-0.0583-0.1455-0.0875-0.2446-0.1459-0.3026-0.0872 0.2446-0.2446 1.0075-0.3728 1.2929-0.058-0.1863-0.1863-0.8328-0.1744-1.5958 0.0119-0.7631 0.0288-0.909 0.0288-1.066-0.0288 0.2327-0.1862 0.5476-0.2446 0.7338-0.0872-0.1571-0.1862-0.3611-0.303-0.53-0.0699 0.1152-0.157 0.2854-0.2327 0.3729-0.0119-0.0699-0.0407-0.2565-0.0583-0.5184-0.0116-0.3029-0.0292-0.6932-0.0116-0.775 0.0288-0.157 0.2738-0.7745 0.7922-1.3398 0.6175-0.6758 1.2526-1.9744 1.4389-2.3764 0.1862-0.4021 0.9784-2.0736 0.9784-2.0736h0.606l-0.8798 2.0037s-0.5299 1.0952-0.8037 1.4976-0.8506 1.5555-1.1071 2.004c0.1863-0.2446 0.3437-0.3728 0.5303-0.6059 0.1805-0.1632 0.6813-0.8678 0.6813-0.8678l-8e-4 -9e-4z" clip-rule="evenodd" fill="#8C6228" fill-rule="evenodd"/>
<path d="m48.944 8.3066c-0.099 0.30464-0.2554 0.58749-0.4608 0.83328-0.3613 0.4312-1.1363 1.0076-1.5145 1.4676-0.3456 0.4486-1.0368 1.672-0.7227 3.1224 0.1152-0.3145 0.3322-0.9378 0.9089-1.6428 0.5768-0.705 1.1943-1.5145 1.4976-2.1435 0.3026-0.6351 0.3433-1.1359 0.3433-1.1359l0.1152-0.14554-0.0698-0.33216-0.0991-0.02342 0.0019 4e-5z" clip-rule="evenodd" fill="#CBA94C" fill-rule="evenodd"/>
<path d="m60.738 46.946s-0.2331-0.6348-0.3029-1.2116c-0.0699-0.5767 0.1152-0.6912-0.0991-1.3513-0.1283-0.402-0.361-0.3456-0.4193-0.402-0.0584-0.0565-0.0991-0.6639-0.0876-0.9961s-0.0115-0.763-0.0699-0.9496c-0.0871-0.0699-0.1455-0.1283-0.2738-0.5591-0.1455-0.4313-0.2154-0.6467-0.2853-0.7746-0.0699-0.1278-0.2742-0.2446-0.2742-0.3728 0-0.2565 0.2331-0.3902 0.2331-0.4608-0.0115-0.1456-0.1862-0.0288-0.2331-0.0699-0.0579-0.0699 0.146-0.4892 0.0703-0.5476-0.0292-0.0288-0.2331 0.2158-0.2857 0.1459-0.0584-0.0703-0.1282-0.7634-0.2331-1.2234-0.0987-0.4485-0.2039-0.7745-0.2154-0.9085-0.0115-0.1283-0.8041-2.3885-0.9961-2.9361-0.1547-0.4627-0.285-0.9333-0.3901-1.4097-0.0584-0.2738-0.0991-0.8333-0.1283-0.7749s-0.0115 0.3437-0.0584 0.3322c-0.0407-0.0119-0.1862-1.0076-0.2327-1.1651-0.0407-0.1574-0.2857-0.6912-0.3456-1.0775-0.0583-0.3905-0.1862-1.41-0.2738-2.1032-0.0875-0.6931-0.1282-0.9784-0.1282-1.152 0.0143-0.4245-0.0091-0.8495-0.0699-1.2698-0.1152-0.7343-0.3456-1.6255-0.5476-2.1435-0.3901-0.9788-1.4273-3.4837-1.6128-4.1069 0-0.1575 0.2039-0.0699 0.2039-0.0699s0.5065 1.2699 0.8794 2.2483c0.3613 0.9788 0.705 1.8409 0.7926 1.9285 0.0698 0.0871 0.6174 1.0483 0.862 2.6212 0.2446 1.5728 0.3318 3.0232 0.4777 3.9901 0.0699 0.4608 0.1283 0.9496 0.2738 1.4388 0.1571 0.5303 0.4017 1.0779 0.7223 1.9166 0.2738 0.705 0.4777 1.2933 0.5883 1.8002 0.1283 0.6466 0.1283 1.1359 0.2039 1.4565 0.0703 0.2738 0.1747 0.821 0.4197 1.6128s0.6056 1.8117 0.8502 2.4465c0.4781 1.2698 0.6912 2.3301 0.7634 2.8953 0.0637 0.5825 0.2796 2.5982 0.2212 3.2037l0.0011-7e-4z" clip-rule="evenodd" fill="#A88F33" fill-rule="evenodd"/>
<path d="m48.974 8.2369-0.0292 0.06989s0.0872 0.02918 0.0699 0.14592c0.0012 0.15971-0.0085 0.31932-0.0292 0.4777-0.0288 0.20387-0.0872 0.36097-0.0987 0.48917 0 0.2738 0.0407 0.58828-0.3456 1.369-0.1152 0.2154-0.1862 0.4017-0.2446 0.5299-0.1455 0.3145-0.1747 0.3614-0.303 0.5069 0.2039-0.1152 0.9382-0.576 1.3106-0.5069-0.2561 0.1456-0.6466 0.4313-0.8912 0.8041 0.0583 0.0115 0.3029 0.0584 0.6912 0 0.6466-0.0991 1.3689-0.3321 2.0037-0.2857 0.6935 0.0407 0.4197-0.8329 0.4197-0.8329l-0.8003-1.7591-1.5145-1.0656-0.2388 0.05762z" clip-rule="evenodd" fill="#BE9C44" fill-rule="evenodd"/>
<path d="m52.922 21.414s-0.6758-0.6758-0.9496-2.9952c-0.2738-2.3301-0.2155-5.76-0.2155-5.76l-0.5475-1.3397s-0.1152-0.8913-0.4021-1.2231c-0.2868-0.33179-0.8502-0.89119-1.1067-1.165s-0.5476-0.64666-0.7223-0.70503c0.0872-0.14553 0.4777-0.96691 1.9745-0.97843 1.4969-0.01152 1.9584 0.82138 2.1147 1.1244 0.1563 0.30298 0.8621 1.6128 1.124 4.1088 0.2446 2.4929 0.2565 2.6795 0.2158 3.5416-0.0292 0.4777-0.1866 1.5844-0.4608 2.7667-0.2504 1.0023-0.5242 2.1208-1.0253 2.6273l8e-4 -0.0024z" clip-rule="evenodd" fill="#A17C34" fill-rule="evenodd"/>
<path d="m50.799 23.4c0.2252 0.0163 0.4502-0.0345 0.6466-0.1459 0.2154-0.0115 0.9961 0.0875 1.5959-0.6755 0.0407 0.1744 0.1459 0.6467-0.1282 1.066 0.1459-0.1459 0.3613-0.2039 0.3905-0.2446 0.0115 0.2154 0.2154 0.8794-0.6467 2.4929 0.2327-0.2561 0.5065-0.2446 0.7511-0.2738 0.0119 0.303 0.1748 1.3222-0.2561 1.8701-0.2853 0.3729-0.7515 0.2562-0.7515 0.2562 0.0068-0.0814 0.0068-0.1633 0-0.2447-0.0115-0.1574-0.0699-0.3144-0.0288-0.4193-0.2252-0.1029-0.4304-0.245-0.6059-0.4197-0.5069-0.4777-1.1651-1.2929-1.2116-1.8989-0.0583-0.6758 0.5476-0.8213 0.5476-0.8213-0.0507-0.0455-0.094-0.0986-0.1282-0.1575-0.0292-0.0987-0.0584-0.2561-0.1747-0.384z" clip-rule="evenodd" fill="#8C6228" fill-rule="evenodd"/>
<path d="m46.311 16.072s-0.0291-0.0407-0.1862 0.1455c0.0292-0.1862 0.0584-0.3613 0.0699-0.5303 0.0743-0.1564 0.1705-0.3015 0.2857-0.4308-0.0876 0.1743-0.1459 0.3317-0.1459 0.3317s0.2158-0.402 0.5303-0.6466c0.2154-0.1747 0.4892-0.2562 0.6055-0.4194 0.1283-0.1747 0.0991-0.2039 0.1283-0.233 0 0 0.2857-0.1863 0.7227-0.7342 0.058-0.0699 0.1455-0.1456 0.2039-0.2155 0.0987-0.0407 0.3318-0.1455 0.6056-0.2857 0.2856-0.157 0.6059-0.3724 0.804-0.4608 0.3902-0.1747 0.8041-0.157 0.9961-0.4312 0.1456-0.0407 0.3026-0.4777 0.2738-0.8502 0.2155 0.0872 1.3221 0.7746 1.7012 2.2775 0.2737 1.066-0.2159 2.7088-0.4198 3.5013-0.2039 0.7926-0.2327 1.3805-0.5184 1.7415-0.3613 0.4781-1.526 1.152-1.8117 1.4857-0.2446 0.2738-0.9784 0.9669-0.9496 1.4676 0.0292 0.3729 0.4892 0.576 0.5887 0.6467 0.0994 0.0706 0.0987 0.1574 0.2853 0.1152 0.1866-0.0423 0.2561-0.1283 0.3321-0.1283 0.0872 0.0115 0.0872 0.0292 0.1279 0.0292 0.0295-9e-4 0.0589-0.0049 0.0876-0.0119 0 0-0.0292 0.5303-1.2699 0.6912-0.0876 0.0119-0.1747 0.0407-0.2857 0.0584 0.1459-0.0699 0.2331-0.0699 0.3905-0.2853-0.1747-0.0292-0.6758-0.0584-0.8041-0.0991 0.0407-0.0699 0.1747-0.2565 0.2853-0.3437 0.0991-0.0872-0.0115-0.1152-0.0987-0.0699-0.15 0.1021-0.294 0.2129-0.4312 0.3318-0.1455 0.1283-0.2738 0.303-0.5069 0.4608-0.0699-0.2331-0.0583-0.6758 0.2158-0.9961-0.0702 0.0115-0.2043 0.2154-0.3321 0.1747-0.0231-0.2125-0.0094-0.4273 0.0407-0.6351 0.0699-0.2623 0.4485-0.7223 0.4485-0.7223l1.829-3.2682 0.3901-2.4757-4.1883 0.8145z" clip-rule="evenodd" fill="#92723A" fill-rule="evenodd"/>
<path d="m46.216 16.212s-0.0991 0.0699 0.099 0.2039c-0.0291 0.0407-0.099 0.1863-0.1866 0.2854-0.0987 0.1152-0.2039 0.1866-0.2446 0.2856-0.0872 0.204-0.1571 0.3437-0.1571 0.4313 0 0.0875-0.0291 0.6466-0.2737 1.0076-0.0876 0.1283-0.1867 0.3437-0.2566 0.4892-0.1455 0.2561-0.2737 0.4608-0.3029 0.576-0.058 0.2039-0.0987 0.763-0.0987 0.763s0.1282-0.1574 0.1747-0.2154c-0.0703 0.1455-0.1459 0.3026-0.2565 0.4193 0.0699-0.0583 0.2738-0.2039 0.6175-0.5069 0.4777-0.4016 1.2234-1.0775 2.1323-1.6128-0.2742 0.0991-0.5069 0.0991-0.6931 0.1283 0.1455-0.1455 1.4561-1.6835 2.1435-1.829 0.0417-0.0529 0.0625-0.1193 0.0583-0.1866l-0.5886-0.058-1.1943 0.2561-0.1743-0.9216-0.7983 0.4835v0.0011z" clip-rule="evenodd" fill="#B18E3E" fill-rule="evenodd"/>
<path d="m48.114 21.454s-0.1575 0.157-0.303 0.5476c-0.112-0.117-0.2081-0.2483-0.2857-0.3906-0.2154-0.3609-0.5472-0.8213-1.3221-0.5591-0.0115-0.2446-0.0292-0.3728 0-0.5475 0.1283-0.0288 0.5184-0.3433 0.9085-0.8038 0.2742-0.3144 0.5304-0.6758 0.7051-1.1358 0.1152-0.0876 0.3145-0.2331 0.576-0.4021 0.3728-0.2561 0.8213-0.6059 0.8912-0.9961-0.1747 0.0699-0.5475 0.2446-1.107 0.2158 0.2158-0.099 0.5475-0.2039 0.5068-0.6351 0.0876-0.0584 0.1575-0.0991 0.1575-0.0991-0.0657-0.0219-0.1348-0.0318-0.2039-0.0292-0.0119-0.0407-0.0292-0.0986-0.1283-0.0698-0.099 0.0288-0.1152 0.0291-0.1282 0.0698-0.0407 0.012-0.1748 0-0.2738 0.0703-0.0991 0.0703-0.3729 0.3026-0.4777 0.3433 0.0407-0.0699 0.0987-0.1743 0.0987-0.1743s-0.2853 0.0288-0.4892 0.1152c-0.3729 0.1282-0.8038 0.3613-1.2408 0.5883 0.0408-0.0699 0.0584-0.1152 0.0872-0.1283 0.0288-0.013 0.0991-0.0288 0.0991-0.0407s-0.0288-0.1152-0.0115-0.157c0.1306-0.2768 0.2848-0.5419 0.4608-0.7922 0.2039-0.2742 0.2446-0.6644 0.2446-0.6644l0.8912-0.4485 2.5049-0.576 1.6254 0.0991-0.2039 1.1244-0.96 1.963-0.8213 1.7882-0.9381 1.0956-0.8625 0.629z" clip-rule="evenodd" fill="#543E26" fill-rule="evenodd"/>
<path d="m52.169 16.589s-0.9789 1.2116-1.2526 1.3982c0.1747-0.3729 1.2526-2.5924 1.6427-3.2099-0.0872-0.0699-0.2039-0.0699 0.0699-1.152-0.2327 0.5472-0.3145 0.8329-0.5065 0.9785-0.192 0.1455-0.2158 0.099-0.3456 0.099 0.0245-0.0443 0.0346-0.0952 0.0288-0.1455 0 0-0.8214-0.0991-1.3824-0.0991s-1.6716 0.303-2.2894 0.5476c-0.4892 0.2039-0.763 0.2039-0.9377 0.3318-0.1748 0.1455-0.2738 0.303-0.3614 0.3437-0.0699 0.0407-0.4016 0.1455-0.4777 0.2561-0.0699 0.1152-0.1862 0.2446-0.1862 0.2738s-0.0292 0.0702 0.0584 0.0407c0.0288-0.0115 0.2446-0.1283 0.4892-0.2738 0.3317-0.1863 0.7338-0.4017 1.0252-0.5299 0.8329-0.3322 1.0952-0.2738 1.4677-0.3437 0.3901-0.0699 0.9496-0.2331 1.3221-0.2331 0.3729-0.0115 1.0779 0 1.2411 0.0292-0.0699 0.0584-0.1283 0.1282-0.0991 0.3728 0 0.0699-0.0583 0.1456-0.1152 0.3145-0.1743 0.4777-0.5065 1.2699-0.6912 1.672-0.2561 0.5472-0.5472 1.0076-0.6912 1.2929s-0.4608 1.0368-0.7745 1.4389c-0.3137 0.402-0.4777 0.6466-0.576 0.7342-0.0983 0.0875-0.8041 0.6055-0.7515 0.7922 0.1283-0.0407 0.9381-0.3456 1.526-1.0077 0.5879-0.662 0.705-1.0659 1.1651-1.4273 0.46-0.3613 0.8214-0.9669 1.0368-1.4676 0.1805-0.4662 0.1398-0.6117 0.3667-1.0253l-0.0015-0.0012z" clip-rule="evenodd" fill="#806031" fill-rule="evenodd"/>
<path d="m31.075 25.631s-0.1283 0.5299-0.4197 0.7922c-0.2853 0.2565-0.7922 0.4777-0.8502 0.9089-0.0699 0.4309 0.5069 0.6467 0.5069 0.6467s-0.3149 0.5184-0.3149 0.9085c0 0.4021-0.0115 0.4777 0.0292 0.8621-0.0462 0.0297-0.0855 0.069-0.1152 0.1152 0 0 0.0288 0.3729 0.3145 0.6056s0.5299 0.3728 0.6754 0.3145c0.0223 0.0475 0.0418 0.0962 0.0584 0.1459 0 0 0.2158-0.5476 0.3614-1.0253 0.1455-0.4892 0.2737-0.4197 0.3317-1.0779 0.058-0.6581 0.6912-1.7883 0.6912-1.7883l0.432-0.9657-0.7046-0.5476-0.9961 0.1052z" clip-rule="evenodd" fill="#B6903C" fill-rule="evenodd"/>
<path d="m32.39 26.581c-0.1453 0.1492-0.2794 0.3088-0.4013 0.4777-0.1862 0.2565-0.3317 0.4892-0.6055 0.5887-0.2738 0.0994-0.4485 0.0986-0.4313 0.3728 0.0173 0.2742 0.2738 0.3902 0.4194 0.5299 0.1574 0.1456 0.2857 0.3902 0.2158 0.6644 0.0872-0.0407 0.2446-0.0876 0.3901-0.4021 0.1456-0.3145 1.1635-2.231 1.1635-2.231l-0.7507-4e-4z" clip-rule="evenodd" fill="#685026" fill-rule="evenodd"/>
<path d="m36.401 22.159s0.0872-0.2327 0-0.4017c-0.0875-0.1747-0.6175-0.2331-0.8797-0.4312-0.2738-0.2039-0.606-0.3456-0.8798-0.2562 0.0407-0.099 0.2039-0.3148 0.0699-0.3613-0.1283-0.0407-0.6056 0.1747-0.7338 0.2738-0.1283 0.0991-0.4197 0.2154-0.4777 0.2857s-0.1575 0.2039-0.2158 0.1455c-0.0584-0.0407-0.0872-0.1455-0.1863-0.0875-0.099 0.0579-0.576 0.4485-0.6639 0.6758s-0.2857 0.7342-0.8797 1.3106c-0.5941 0.5764-0.8506 0.9496-0.6759 1.1651 0.1747 0.2154 0.2565 0.0583 0.2857 0.2446 0.0225 0.1828 0.0126 0.3681-0.0292 0.5475-0.0699 0.303-0.1862 0.5883-0.0292 0.6467 0.4021 0.1283 0.7926-0.1152 0.8798-0.0407 0.1747 0.1571-0.0991 0.7223 0.3145 0.8329 0.4197 0.1152 0.8333-0.0991 0.8333-0.0991l1.526-0.8214 1.468-0.7745 0.7511-1.4857-0.4028-1.2407-0.0768-0.1282h0.0023z" clip-rule="evenodd" fill="#D4B968" fill-rule="evenodd"/>
<path d="m34.96 25.707s-0.2565-0.3901 0.0584-0.7342c0.3149-0.344 0.763-0.4892 0.9377-0.7046-0.0332-0.0411-0.0778-0.0714-0.1282-0.0872 0.1159-0.2075 0.2929-0.3744 0.5068-0.4781-0.0871-0.0871-0.2039-0.157-0.3317-0.157-0.2857 0-0.4608 0.1747-0.7227 0.1747-0.2561 0-0.2853-0.1283-0.2853-0.1283s0.4312-0.0407 0.3901-0.2331c-0.0407-0.2039-0.1152-0.2039-0.1152-0.2039s0.8329-0.3456 0.9784-0.5299c0.1456-0.1843 0.1283-0.402 0.1575-0.4892 0.0987 0 0.6754-0.303 0.9085-0.1747 0.2331 0.1282 0.0699 0.4777 0.0699 0.4777s0.7054-0.5303 1.0648-1.0503c0.3145 0.0292 0.4608-0.2154 0.6912-0.2154 0.2857 0 0.7343 0.3902 0.8214 1.2231 0.0584 0.4777 0.1456 0.7514 0.0584 1.5962-0.0407 0.4777-0.0292 1.4976 0.1152 2.0038 0.0987 0.402 0.3318 0.3613 0.3318 0.3613-0.0358 0.1225-0.1067 0.2319-0.2039 0.3145-0.1575 0.1455-0.1748 0.5303-0.1575 0.6758 0.0232 0.1064 0.0525 0.2114 0.0876 0.3145 0 0-0.1863 0.2155-0.2331 0.3614-0.0407 0.1455-0.2327 0.2446-0.3729 0.2446-0.1401 0-0.0699-0.0119-0.2561 0s-0.2446 0.0407-0.3613 0c-0.1168-0.0407-0.204-0.0876-0.1571-0.4608 0.0407-0.3729-1.4389-1.2407-1.4389-1.2407l-2.4192-0.8621 0.0054 0.0019z" clip-rule="evenodd" fill="#CCA849" fill-rule="evenodd"/>
<path d="m32.186 29.388s0.5299 0.705 2.7087 0.705c1.0368 0 1.3982-0.0991 1.6128-0.1575 0.2331-0.0583 1.1067-0.4016 1.9865-1.4388 0.7922-0.9377 0.6175-1.3221 0.6175-1.3221l-0.4608-0.0699-1.4976 0.2039-4.4314 1.8874-0.5376 0.192h0.0019z" clip-rule="evenodd" fill="#585136" fill-rule="evenodd"/>
<path d="m33.809 29.563s-1.8873 0.4197-1.8873-0.7745c0-1.1651 1.165-2.3885 1.4565-2.6039 0.303-0.2158 1.0253-0.4608 1.0253-0.4608h1.7418l0.3318 0.8797-0.1456 1.8989-2.5225 1.0606z" clip-rule="evenodd" fill="#252211" fill-rule="evenodd"/>
<path d="m35.55 26.08s-0.361-0.3322-1.1824 0.1152c-0.8213 0.4474-1.4857 1.3824-1.5264 2.2314-0.0407 0.7511 0.6175 1.3106 1.6428 1.3398 0.763 0.0288 1.2234-0.0584 1.4565-0.1152-0.0584-0.0699-0.3613-0.4485-0.3613-0.4485l-0.0292-3.1227z" clip-rule="evenodd" fill="#C3B378" fill-rule="evenodd"/>
<path d="m35.194 26.266s-0.0872-0.0699-0.3456 0.0699c-0.2154 0.1152-0.5299 0.4197-0.7745 0.6351-0.1575 0.1282-0.2565 0.1862-0.3456 0.2853-0.3614 0.4312-0.6644 1.1363-0.4892 1.4857 0.1751 0.3494 0.7514 0.7515 2.2195 0.4777l-0.2688-2.9534 0.0042-3e-4z" clip-rule="evenodd" fill="#E6D89C" fill-rule="evenodd"/>
<path d="m34.719 26.988s-0.2331 0.3613-0.2331 0.9381c0 0.5883 0.3321 1.526 1.5556 1.5959 0.9377 0.0584 1.5667-1.3513 2.2483-1.8989 0.5184-0.4193 0.8329-0.4312 0.8329-0.4312s-0.5299-0.576-1.9454-1.3221c-1.3981-0.7515-2.9652-0.8506-3.8158 0.303 0.4021-0.0292 1.7011-0.3614 1.7011-0.3614l0.6352 0.2039-0.9788 0.9727z" clip-rule="evenodd" fill="#252211" fill-rule="evenodd"/>
<path d="m36.546 27.751c-0.0407-0.0872-0.0699-0.2039 0.0991-0.2327 0.1689-0.0288 0.2446-0.0119 0.3029 0.1152 0.0584 0.1271 0.1152 0.2331 0.0288 0.2857-0.0871 0.0465-0.3141 8e-4 -0.4308-0.1682zm-0.2686-0.8215s-0.0584 0.0407-0.0292-0.0407c0.0115-0.0987 0.0876-0.2738 0.2738-0.2327 0.1862 0.041 0.1459 0.2446 0.1152 0.3029-0.0307 0.0584-0.1862 0.1571-0.303 0.1152-0.03-0.0076-0.0546-0.0292-0.0661-0.0579-0.0115-0.0288-0.0086-0.0613 0.0078-0.0876l0.0015 8e-4z" clip-rule="evenodd" fill="#6F674D" fill-rule="evenodd"/>
<path d="m20.504 27.302s0.4608 0.3456 0.9961 0.3322c0.5299-0.0119 1.2115-0.5591 1.526-0.909 0.1863-0.2039 0.3456-0.4193 0.5184-0.5883 0.1459-0.1455 0.2446-0.2154 0.3145-0.3145 0.0991-0.1152 0.2039-0.3317 0.2565-0.402-0.1282 0.0991-0.3145 0.2742-0.5069 0.3905-0.1862 0.1152-0.5882 0.3318-0.7514 0.3902-0.1571 0.0583-1.7883 0.9216-1.7883 0.9216l-0.5649 0.1793z" clip-rule="evenodd" fill="#AC924C" fill-rule="evenodd"/>
<path d="m21.207 22.998s0.2562-0.1747 0.7515-0.2857c0.4777-0.1152 1.4389-0.2039 1.4389-0.2039l0.7922 0.3456 0.3145 1.1943-0.576 1.2411-0.7339 0.4608-0.8332-1.3398-1.152-1.4101-2e-3 -0.0023z" clip-rule="evenodd" fill="#9F8E57" fill-rule="evenodd"/>
<path d="m20.176 24.064-0.2742 0.2047s0.0703-0.1283 0.1283-0.5184c0.058-0.3902 0.3613-1.3398 0.8041-1.8874 0.4427-0.5476 0.4312-0.5184 0.4312-0.5184-0.0824-0.015-0.1673 0.0061-0.2331 0.058 0.0584-0.129 0.4313-0.5898 0.8041-0.8202 0.3729-0.2304 0.5184-0.303 0.9086-0.1152 0.3901 0.1878 0.4892 0.2853 0.7749 0.2738s0.5299-0.3145 0.5299-0.3145 0.0584 0.1862-0.157 0.6175c-0.2155 0.4312-1.066 1.3105-1.066 1.3105l-1.771 1.2116-0.8798 0.4992v-0.0012z" clip-rule="evenodd" fill="#EAC970" fill-rule="evenodd"/>
<path d="m21.484 22.853s1.2817 0.1747 1.6719-0.1863c0.0115 0.0407 0.0584 0.0407 0.0584 0.0699-0.0032 0.022-0.0134 0.0424-0.0292 0.058 0.0424-0.0068 0.0853-0.0106 0.1282-0.0115 0.0513 0.0153 0.1041 0.025 0.1575 0.0292 0.043-9e-4 0.0858-0.0049 0.1282-0.0119-0.0082 0.0585-0.0398 0.1111-0.0875 0.1459 0.0583 0 0.1152 0.0115 0.1152 0.058 0 0.0464 0.0115 0.1866-0.0584 0.2158-0.0579 0.016-0.1195 0.0118-0.1747-0.0119 0.0046 0.1103 0.0346 0.218 0.0875 0.3149 0.1152 0.2154 0.361 0.4608 0.6912 0.3901 0 0 0.1744 0.4193-0.5594 1.3513-0.0987 0.1283-0.204 0.303-0.3318 0.4485-0.0505 0.1101-0.0892 0.2254-0.1152 0.3437 0 0 1.2411-0.4777 1.5963-1.5671 0.3613-1.0952 0.4312-2.1727 0.3613-3.1803-0.0119-0.2857-0.0584-0.4892-0.1282-0.6351-0.1748-0.3614-0.6644-0.303-0.8621-0.0991-0.2857 0.2857-0.7634 0.9961-1.4274 1.4853-0.6758 0.4892-0.7046 0.576-1.2234 0.7926h0.0016z" clip-rule="evenodd" fill="#D7BC6B" fill-rule="evenodd"/>
<path d="m19.942 24.426s-0.2446 0.1456-0.3728 0.6912c-0.1283 0.5591 0.1152 1.2407 0.2561 1.4561 0.1409 0.2155 0.4608 0.8041 1.1243 0.8333 0.1643-8e-4 0.3267-0.0345 0.4777-0.099 0.2317-0.1063 0.4489-0.2413 0.6467-0.4021 0.2857-0.2154 0.5184-0.4017 0.4892-0.4193-0.0699-0.0292-1.7591-1.4273-1.7591-1.4273l-0.6351-0.7089-0.227 0.076z" clip-rule="evenodd" fill="#585136" fill-rule="evenodd"/>
<path d="m21.539 26.744s0.3437-0.0288 0.5476-0.157c0.2039-0.1283-1.1942-1.5145-1.1942-1.5145l0.0991 1.4976 0.5475 0.1739z" clip-rule="evenodd" fill="#453A25" fill-rule="evenodd"/>
<path d="m20.056 24.32s-0.1747 0.3322-0.1747 0.4198c-0.0292 0.2853 0.0583 1.1823 0.1282 1.4676 0.0699 0.303 0.4485 0.763 0.9381 0.763 0.3026 0 0.7223-0.1862 0.7223-0.2327 0-0.0584-0.4312-0.1152-0.5475-0.3322-0.0699-0.1152-0.0991-0.4016-0.1152-0.6912-0.0116-0.1862-0.0116-0.3901 0.0583-0.4608 0.1575-0.1747 0.1863-0.6758 0.1863-0.6758l0.5591-1.0387h-0.7354l-0.8797 0.5476-0.1398 0.2334z" clip-rule="evenodd" fill="#84754B" fill-rule="evenodd"/>
<path d="m19.842 24.641s0.576-0.763 1.0952-0.9381c0.5191-0.1751 0.7515-0.0699 0.7515-0.0699l-0.303 0.775-0.4313 0.4777 0.0292 0.2446s-0.0702 0.6466 0.361 1.0951 0.7515 0.4313 0.9381 0.4313 0.7223-0.1575 0.9961-0.8041c0.2446-0.6056 0.4485-1.3824-0.0407-2.1612-0.4781-0.7749-1.3225-0.8048-1.4857-0.8048s-1.4446 0.0641-1.9104 1.7533v0.0011z" clip-rule="evenodd" fill="#252211" fill-rule="evenodd"/>
<path d="m34.633 27.233c-0.2154-0.0991-0.0115-0.7046 0.2039-0.8913 0.2154-0.1866 0.4892-0.4016 0.9673-0.4312 0.1743-0.0115 0.3433 0.0991 0.3145 0.2158-0.0407 0.2154-0.3437 0.5184-0.6175 0.7338-0.3786 0.2973-0.6236 0.4835-0.8682 0.3729z" clip-rule="evenodd" fill="#F7F7E7" fill-rule="evenodd"/>
<path d="m22.98 23.93c0.1574-0.0115 0.3613 0.1152 0.402 0.2857 0.0407 0.1863-0.099 0.5591-0.402 0.5591-0.2446 0-0.3729-0.3029-0.3729-0.3901 0.0028-0.0717 0.0228-0.1416 0.0584-0.2039 0.0115-0.0177 0.0407-0.2216 0.3145-0.2508z" clip-rule="evenodd" fill="#F8F6DE" fill-rule="evenodd"/>
<path d="m20.712 24.064s-0.402 0.1862-0.5883 0.576c-0.133 0.2878-0.1733 0.6099-0.1152 0.9216 0.0292 0.1455 0.1747 0.5065 0.2738 0.6347 0.0991 0.1283 0.2331 0.2158 0.3322 0.2039s0.3026-0.2738 0.3026-0.4308c0-0.1571 0.0119-0.8214 0.2039-1.1827 0.1689-0.361-0.4078-0.7223-0.4078-0.7223l-0.0012-4e-4z" clip-rule="evenodd" fill="#D4C38B" fill-rule="evenodd"/>
<path d="m20.767 24.035c-0.0699 0.0407-0.1862 0.0991-0.1574 0.1748 0.0291 0.0699 0.2738 0.1152 0.3613 0.2857 0.0991 0.1747 0.0991 0.3609 0.0699 0.4485 0.0761-0.0362 0.1451-0.0856 0.2039-0.1459 0.1283-0.1456 0.2853-0.3433 0.4193-0.3433 0.0876 0 0.1747 0.0407 0.2565 0.0407 0.1283 0 0.2562-0.0407 0.2738-0.1748 0.0288-0.1747-0.2446-0.3321-0.402-0.3029 0.0292-0.1152 0.0699-0.2853-0.0584-0.4021-0.1282-0.1167-0.5299 0.0876-0.6175 0.1459-0.0875 0.0584-0.3494 0.2734-0.3494 0.2734z" clip-rule="evenodd" fill="#E2D59D" fill-rule="evenodd"/>
<path d="m30.026 36.274 0.862-0.2546 0.2446 0.1747s0.1744 0.3729 0.4486 0.4193c-0.0876 0.1863-0.3149 0.3456-0.303 0.4777s0.1282 0.2331 0.1282 0.2331-0.7749 1.2814 0.7515 2.5728c-0.3613 0.1456-0.8213 0.3456-1.066 0.4608 0.1744 0.0407 0.5472 0.1152 0.7047 0.2565 0.1574 0.1413 0.1574 0.1863 0.303 0.2738 0.1455 0.0876 0.2327 0.2039 0.2039 0.2562-0.0991-0.0584-0.4313-0.2328-0.4893-0.0699-0.0579 0.1628-1.4388 0.099-1.4388 0.099l-2.3301 0.4485s0.0872-0.233-0.1575-0.4485c-0.2853-0.2561-0.6347 0.0116-1.0076-0.2738-0.4892-0.3728-0.5068-0.8041-0.6639-0.9669 0.1571-0.099 0.4777-0.2446 1.2407-0.3456-0.0292-0.0583-0.1283-0.2331-0.0699-0.3901 0.0699-0.2039 0.361-0.3322 0.2738-0.576 0.1283-0.0292 0.1862-0.0292 0.5069-0.4312 0.303-0.4021 0.4892-0.4893 0.7223-0.5184 0.2331-0.0292 0.3729 0 0.8041-0.4021 0.3026-0.2853 0.2039-0.5299 0.2039-0.5299s0.1974-0.0633 0.1279-0.4654z" clip-rule="evenodd" fill="#CBAC5A" fill-rule="evenodd"/>
<path d="m27.482 36.403c0.0115-0.0583 0.0584-0.0875 0.3729-0.0583 0.3145 0.0291 2.3067-0.1863 2.8485-0.2155 0.5476-0.0407 2.4756-0.0119 3.4138 0.1863 0.9381 0.1981 1.8873 0.4312 2.3473 0.5476 0.4608 0.1282 0.606 0.1743 0.5883 0.2327-0.0115 0.0583-0.1152 0.1152-0.1747 0.099-0.058-0.0115-1.5844-0.4777-2.0559-0.576-0.4716-0.0983-2.1032-0.3613-2.9952-0.3456-0.8329 0.0119-1.1651-0.0115-1.8697 0.0699-0.705 0.0876-1.8701 0.2039-2.2195 0.1575-0.3456-0.0407-0.2742-0.0407-0.2566-0.0991l8e-4 0.0015z" clip-rule="evenodd" fill="#D6BC6F" fill-rule="evenodd"/>
<path d="m32.168 40.969s1.1942 0.6467 1.6255 1.4389c0.3145 0.5883-0.1863 0.8797-0.1863 0.8797s0.6759 0 0.5883 0.3729c-0.0407 0.2327-1.165 0.8617-1.9165 1.1939-0.763 0.3321-0.7338 0.3148-1.1067 0.3728-0.3613 0.0584-1.3517-0.1152-1.5556 0.1747-0.2039 0.29-0.1152 0.5887-0.0584 0.6352 0.0584 0.0407 0.5303 0.0991 0.5303 0.0991s-0.099 0.2737-1.0775 0.3029c-0.9784 0.0292-1.2234 0.0987-1.2818 0.2039-0.0583 0.0987 0.1863 0.0407 0.6352 0.1152 0.4485 0.0699 1.0775 0.1152 1.0775 0.1152s-0.2039 0.1748-0.7338 0.3145c-0.606 0.1571-1.5556 0.303-1.8409 0.4777 0.1455 0.0991 0.3613 0.2446 0.4608 0.2562-0.2446 0.0583-0.5887 0.1866-0.6467 0.233 0.0872 0.0584 0.2039 0.1283 0.2039 0.1283s-0.4896 0.5883-0.7749 0.7342-1.9281 0.9085-2.4933 0.763c-1.4097-0.3729-1.5844-1.9165-1.9281-2.0329-0.5184-0.1747-0.763 0.1744-1.2234-0.0703 0.2039-0.1455 0.3149-0.2327 0.5303-0.3317-0.2331-0.1152-1.4388-0.8798-1.4388-0.8798-0.1261-0.2748-0.2661-0.5431-0.4194-0.8037-0.2331-0.402-0.576-0.9381-0.8332-1.41-0.5592-1.0368-0.5883-1.5145-1.0952-2.1028 0.0875-0.1152 0.3901-0.0991 0.3901-0.0991l4.2471 1.3982 7.5306 0.2181 1.9584-2.7959 0.8325 0.0986z" clip-rule="evenodd" fill="#DFC677" fill-rule="evenodd"/>
<path d="m21.014 45.233c0.0454 0.0506 0.0984 0.0938 0.157 0.1283 0.1459 0.099 0.3614 0.2158 0.5069 0.3901 0.0584-0.0872 0.2039-0.2446 0.4608 0s0.576 0.0703 0.7745 0.1283c0.2039 0.0702 0.2155 0.099 0.2155 0.099s0.1152-0.099 0.3728-0.2039c0.1575-0.0583 0.3437-0.099 0.5476-0.157 0.1862-0.0407 0.3902-0.0991 0.5303-0.0991 0.1283 0.0872 0.5883 0.576 2.435-0.1455 1.7418-0.6759 2.1434-0.7515 2.4349-0.6471 0.0292-0.0699 0.0584-0.2039 0.5069-0.1862 0-0.1863-0.3729-0.8214-0.3729-0.8214l-2.0563-0.7046h-1.1247l-3.3727 0.6174-1.8689 1.0664-0.1456 0.5376-0.0011-0.0023z" clip-rule="evenodd" fill="#C4A859" fill-rule="evenodd"/>
<path d="m19.889 44.051s0.0407 0.3145 0.5069 0.6466c0.4608 0.3318 0.6055 0.53 0.6055 0.53s0.0876-0.1152 0.1575-0.2327c0.0698-0.1283 0.1282-0.2738 0.2446-0.3145 0.2331-0.0991 0.763 0.0871 0.8797 0.0579 0.0991-0.0288 0.0699-0.2327 0.1747-0.2327 0.2446-0.0119 0.4017 0.1571 0.4892 0.1571 0.0876 0 0.3026-0.0115 0.3318-0.058s0.0407-0.5303 0.3729-0.7634c0.3613-0.2561 0.8041-0.1455 0.9216-0.0871 0 0.0871 0.0115 0.3029 0.2446 0.3144 0.2331 0.0116 0.2561-0.0291 0.4608 0.0408 0.2047 0.0698 0.4485-0.0116 0.5591 0.3317 0.0991-0.0288 0.3322-0.058 0.2738-0.3901 0.1152-0.0872 0.2158-0.1456 0.4608-0.4892 0.0584-0.0872 0.157-0.1863 0.2331-0.3145 0.2039 0 0.4485-0.0407 0.7745 0.2446-0.0991 0.0699-0.1574 0.1152-0.1862 0.1862 0.0852 0.0844 0.1631 0.1761 0.2327 0.2738 0.0875 0.1152 0.1459 0.2565 0.2565 0.2857 0.2446 0.0699 0.6466-0.0292 1.0952 0 0.4312 0.0292 0.7921 0.1862 0.9496 0.2853 0.0584-0.0288 0.0584-0.0407 0.2039-0.0115s0.2561 0.0407 0.0991-0.1455c0.0871 0.0407 0.1862 0.1282 0.2738 0.0407 0.0875-0.0876 0.157-0.2155 0.4016-0.2446 0.2446-0.0292 0.3322 0.0115 0.4312-0.2446 0.1283-0.3145-0.3144-0.3145-0.3144-0.3145s0.2039-0.1867 0.4312-0.4313c0.2738-0.2561 0.5883-0.5883 0.6639-0.9961 0.1283-0.7515-0.6055-0.8501-0.6055-0.8501l-3.5593 1.0951-4.3515-0.2158-3.7106 1.8467-0.0023-4e-4z" clip-rule="evenodd" fill="#927D49" fill-rule="evenodd"/>
<path d="m16.69 33.769s-0.1152 0.1455-0.1863 0.4892c-0.071 0.3437-0.0407 0.303-0.099 0.5476-0.0584 0.2446-0.7753 2.6795-0.5065 3.5009s0.7342 1.1244 1.0252 1.7883c0.0584 0.1455 0.1152 0.2331 0.1456 0.3613 0.0991 0.4309 0.0119 0.7631 0.1282 1.1943 0.0407 0.1455 0.146 0.3145 0.303 0.4892 0.3456 0.361 0.9089 0.7046 1.152 0.9492 0.3433 0.3614 0.8329 1.0956 1.4561 1.1651 0.3322 0.0407 0.8041-0.0991 1.1943-0.3318 0.3456-0.2158 0.5591-0.5184 0.9216-0.6912 0.2561-0.1282 0.5299-0.1747 0.7745-0.2331 0.5069-0.099 0.9673-0.1152 1.2411-0.0583 0.4193 0.0875 1.4097 0.3905 1.9584 0.3905 0.4288-0.0069 0.8552-0.0656 1.2699-0.1747 0.8329-0.2446 1.8405-0.6643 2.5048-0.8506 0.3902-0.1152 0.7047-0.1455 1.0253-0.2154 0.5476-0.1283 1.0076-0.303 1.2699-0.6351-0.1747-0.2039-0.3902-0.5184-1.5556-0.5069-1.3221 0.0292-2.8485 0.763-3.6 0.8797-0.7515 0.1168-1.0775 0.2154-1.9165-0.0875-0.8226-0.3061-0.8498-0.5084-0.8498-0.5084s-0.8636-0.6041-1.225-2.1439c-0.3613-1.5399 0-2.6619 0.9381-3.7283 0.2446-0.2738 0.1863-0.5184 0.1863-0.5184s0.6174-0.8329 0.4485-1.6128c-0.1863-0.7749-1.3805-0.6174-1.3805-0.6174l-6.6236 1.1585z" clip-rule="evenodd" fill="#6E6342" fill-rule="evenodd"/>
<path d="m17.682 36.361c-0.0513 0.0966-0.0755 0.2053-0.0699 0.3145 0.0115 0.1571 0.0584 0.361 0.5299 0.8214 0.4021 0.4016 0.3145 0.8502 0.3145 0.8502s0.2024 0.0407 0.7515-0.2162c0.4313-0.2039 0.576 0.1574 0.576 0.1574 0.1256-0.0658 0.2616-0.1092 0.4021-0.1283 0.1272-0.0117 0.2504-0.051 0.3609-0.1152 0 0 0.5069 0.5184 0.9497 0.7631 0.402 0.2158 0.6351 0.3613 0.8333 0.2158 0.1862-0.1283 0.1862-0.3906 0.1743-0.5069-0.0462-0.1074-0.1047-0.2091-0.1743-0.303-0.1283-0.1862-0.3322-0.402-0.3456-0.576-0.0292-0.4017 0.3029-0.8797 0.2327-0.9961-0.0703-0.1163-0.3318-0.1455-0.9785 0.0876-0.6697 0.2211-3.5593-0.3671-3.5593-0.3671l0.0027-0.0012z" clip-rule="evenodd" fill="#39331F" fill-rule="evenodd"/>
<path d="m19.211 38.965s-0.3318-0.3145-0.2155-1.8409c0.1409-2e-3 0.2815 0.0116 0.4194 0.0408 0 0 0.1808 1.1827-0.2039 1.8001z" clip-rule="evenodd" fill="#292311" fill-rule="evenodd"/>
<path d="m16.847 32.604c0.0463-0.0342 0.0892-0.0728 0.1283-0.1152-0.1152 0.2154-0.6471 1.0776-0.2158 2.4351 0.4312 1.3513 1.5145 2.3588 2.8485 2.4056 1.334 0.0469 2.0352-0.6059 2.837-1.5844 0.3145-0.3901 0.6758-0.8797 0.9961-1.2115 0.4777-0.5188 0.8505-0.6643 0.8505-1.165 0-1.0253-1.0487-1.4857-2.5924-1.9458-1.5436-0.46-2.936-0.4032-3.6583-0.0883-0.7047 0.3433-1.0073 0.7043-1.1939 1.2695z" clip-rule="evenodd" fill="#252211" fill-rule="evenodd"/>
<path d="m21.804 39.425 0.1152-0.0584s0.0288-0.4608 0.2154-0.4485c0.1863 0.0292 0.2738 0.2742 0.2561 0.3614-0.0115 0.0871-0.0579 0.233-0.2446 0.2154-0.2446 0.0057-0.3433-0.0699-0.3433-0.0699h0.0012z" clip-rule="evenodd" fill="#3F3824" fill-rule="evenodd"/>
<path d="m21.287 37.468s0.1152-0.0407 0.2561 0.0991c0.1152 0 0.6175-0.0584 0.775 0.0407 0.1574 0.099 0.2039 0.1862 0.2039 0.1862s-0.5883 0.1283-0.909 0c-0.326-0.1106-0.326-0.326-0.326-0.326z" clip-rule="evenodd" fill="#2D2815" fill-rule="evenodd"/>
<path d="m23.876 37.555c0-0.0292-0.3145-0.2446-0.6467-0.3149-0.0584-0.0115-0.0703 0.0292-0.1152 0.0292-0.0292-0.0115-0.0407-0.099-0.0407-0.099l-0.1889 0.0994s-0.0292 0.0407 0.0699 0.1152c0.0871 0.0699 0.233 0.1283 0.2738 0.2446 0.0407 0.1164 0.0407 0.1571 0.0583 0.1747 0.0115 0.0116 0.2154 0 0.3145-0.0583 0.0991-0.0584 0.2857-0.1536 0.2738-0.192l0.0012 0.0011z" clip-rule="evenodd" fill="#82764F" fill-rule="evenodd"/>
<path d="m20.934 38.738s0.058-0.4017 0.4485-0.4193c0.4017-0.0292 0.4777 0.3609 0.4777 0.3609l-0.2331 0.2331c0-0.0057-0.1747-0.2503-0.6912-0.1747h-0.0019z" clip-rule="evenodd" fill="#2D2816" fill-rule="evenodd"/>
<path d="m23.467 37.008s-0.2158 0.2331-0.6931 0.303c-0.0407-0.0584-0.1283-0.1748 0-0.361s0.2738-0.2446 0.4193-0.1866c0.1311 0.0212 0.238 0.1167 0.2738 0.2446z" clip-rule="evenodd" fill="#574F35" fill-rule="evenodd"/>
<path d="m24.347 37.294c0.0119-0.0583-0.0288-0.0699 0-0.099 0.0288-0.0292 0.1867-0.0872 0.2158-0.0584 0.0116 0.0119 0 0.0584 0 0.1152s0 0.1152-0.0291 0.157c-0.0407 0.0584-0.1571 0.0876-0.2155 0.0703-0.0583-0.0173-0.0699-0.0991-0.0699-0.1152 0.0288-0.0115 0.0987-0.0407 0.0987-0.0699zm0.9996-0.6293c0-0.0292 0.099-0.0875 0.1574-0.0875 0.0872 0 0.0872 0.0698 0.0991 0.0875 0.0288 0.0115 0.0288-0.0119 0.058 0.0407 0.0291 0.0526 0.0702 0.1456 0.0407 0.2039-0.0296 0.0584-0.1456 0.0987-0.1744 0.0872-0.0407-0.0292-0.1689-0.2911-0.1808-0.3318z" clip-rule="evenodd" fill="#82764F" fill-rule="evenodd"/>
<path d="m23.344 37.427s0.1282 0.0288 0.3029 0.1748c-0.0583 0.0407-0.1459 0.0871-0.1459 0.0871s-0.0115-0.1337-0.157-0.2619z" clip-rule="evenodd" fill="#6E6342" fill-rule="evenodd"/>
<path d="m23.053 36.146c-0.0292-0.0288 0.0872-0.0987 0.1571-0.0872s0.0991 0.0584 0.1747 0.0699c0.0757 0.0115 0.0876-0.0292 0.1152-0.0584 0.0277-0.0292 0.1283-0.0115 0.1455 0 0.0108 0.0128 0.0206 0.0264 0.0292 0.0407 0.0025-0.0448 0.0235-0.0865 0.058-0.1152 0.0453-0.0332 0.1033-0.044 0.1575-0.0291 0.0115 0.0407 0.0698 0.1862 0.0583 0.2154s-0.1862 0.0702-0.2158 0.0407c0.0292 0.0703 0.1575 0.2158 0.1747 0.2446 0.0173 0.0288-0.1282 0.0991-0.1862 0.0875-0.0814-0.0057-0.5825-0.2972-0.6697-0.4078l0.0015-0.0011zm0.7642-0.9672c-0.0108-0.0294-0.0314-0.0541-0.0583-0.0699-0.0407-0.0115-0.1748 0-0.1748 0.0699s0.1152 0.4608 0.2446 0.6643c0.146 0.2039 0.2447 0.3725 0.3437 0.4193 0.0646 0.0294 0.1408 0.0039 0.1747-0.0583 0.0116-0.0292 0.0408-0.2447 0.0292-0.7515-0.0115-0.5069-0.0292-0.9961-0.0583-1.0253-0.0292-0.0292-0.1456-0.0288-0.1863 0.0292s-0.3026 0.6351-0.3145 0.7223z" clip-rule="evenodd" fill="#585136" fill-rule="evenodd"/>
<path d="m23.298 38.161s-0.2039-0.1282-0.402-0.0407c-0.1863 0.0876-0.1748 0.4312-0.1748 0.4312 0.0851 0.0333 0.1811 0.0224 0.2566-0.0291 0.1282-0.0872 0.291-0.2332 0.3202-0.3614z" clip-rule="evenodd" fill="#574F35" fill-rule="evenodd"/>
<path d="m23.688 38.622c-0.0116-0.1152-0.1152-0.1152-0.1152-0.1747 0.0147-0.0586 0.0675-0.0995 0.1278-0.0991 0.0584 0 0.1152 0.0699 0.1867 0.1152 0.0698 0.0407 0.1747 0.1152 0.1862 0.2039s-0.1152 0.3318-0.2561 0.3318c-0.141 0-0.0991-0.2623-0.1283-0.3787l-0.0011 0.0016zm1.1193-0.1576s-0.233 0.0699-0.2158 0c0.0173-0.0699 0.0703-0.0872 0.146-0.0872 0.0384-0.0402 0.0901-0.0652 0.1455-0.0703 0.0317-0.0015 0.0628 0.0089 0.0872 0.0292 0 0 0.1574-0.0699 0.2039-0.0292 0.0464 0.0407 0.0119 0.0407 0.0407 0.0876 0.0366 0.052 0.0607 0.1118 0.0702 0.1747 0 0.0465-0.1747 0.1455-0.3148 0.1283-0.1629-0.035-0.1341-0.2039-0.1629-0.2331zm1.36-0.2621s0.0698 0.0407 0.0119 0.0876c-0.0407 0.0407-0.2446 0.1152-0.4197 0.1282-0.1748 0-0.3318 0.0288-0.3318-0.0292 0-0.0579 0.1455-0.1747 0.2327-0.2039 0.0354-0.0443 0.0891-0.0701 0.1459-0.0698 0.0699 0 0.3433-0.0292 0.4193-0.0408 0.0699-0.0119 0.1283 0.0288 0.0872 0.0872-0.0173 0.0407-0.1455 0.0407-0.1455 0.0407zm0.3975-1.7986s-0.0876 0.1862-0.1863 0.1862c-0.099-0.0115-0.099-0.0407-0.099-0.0698 0-0.0408 0.099-0.1456 0.0871-0.1748-0.0288 0-0.099 0-0.0871-0.0699 0-0.0583 0.099-0.1282 0.1862-0.1152 0.0659-0.0541 0.1479-0.0847 0.2331-0.0871 0.0991 0 0.1862 0.0288 0.1862 0.0871 0 0.0584-0.1152 0.1863-0.1574 0.2159-0.0465 0.0464-0.1048 0.0768-0.1628 0.0288v-0.0012zm-1.3233 3.4424s-0.1152 0.0119-0.1152 0.0699c0 0.0292 0.0288 0.0292 0.0699 0.0119 0.0237-0.0013 0.0471-0.0053 0.0699-0.0119 0.0115 0.0119 0.0115 0.0699 0.0991 0.0699 0.0719-0.0097 0.1412-0.0335 0.2039-0.0699 0.0699-0.0288 0.1282-0.0584 0.1282-0.1152-0.0291-0.0991-0.0875-0.1459-0.1747-0.1459-0.0446-0.0029-0.0892 0.0073-0.1282 0.0292 0 0-0.0292-0.0584-0.1283 0-0.0991 0.0583-0.0875 0.0583-0.0584 0.0875 0.0523 0.0465 0.035 0.0768 0.035 0.0768l-0.0012-0.0023zm-0.66 0.6059c0-0.0292 0.1455-0.0875 0.1862-0.0699 0.0407 0.0116 0.1571 0.2327 0.1571 0.2562 0 0.0292-0.1455 0.099-0.2039 0.099s-0.1571-0.099-0.1571-0.1152c0-0.0115 0.0699-0.0288 0.0699-0.0407 0.0173-0.0288-0.0522-0.099-0.0522-0.1282v-0.0012zm-0.4634-0.8504c0.0291-0.0115 0.0291-0.0407 0.0699-0.0698 0.0258-0.0172 0.0581-0.0215 0.0875-0.0116 0.0208-0.0371 0.0572-0.0629 0.0991-0.0702 0.0699-0.0116 0.1282 0 0.1152 0.0292 0 0.0875 0.0583 0.1455 0.0583 0.2154s-0.0407 0.1574-0.1862 0.2158c-0.1455 0.0407-0.3437 0.0407-0.3729 0.0292-0.0291-0.0116-0.0583-0.1283-0.0291-0.1867 0.0291-0.0583 0.1113-0.1221 0.1582-0.1513z" clip-rule="evenodd" fill="#82764F" fill-rule="evenodd"/>
<path d="m24.304 39.641s-0.0991 0.0584-0.0991 0.0876c-0.0088 0.0282-0.0127 0.0577-0.0115 0.0872 0 0.0172 0.1282-0.0116 0.1455-0.0292 0.0058-0.0115-0.0349-0.1152-0.0349-0.1456z" clip-rule="evenodd" fill="#6E6342" fill-rule="evenodd"/>
<path d="m23.441 39.367c0.058 0.0119 0.1571 0 0.2327 0.0292 0.0584 0.0292 0.0991 0.0875 0.0407 0.1574-0.0583 0.0699-0.1152 0.1747-0.2446 0.1571-0.1455-0.0115-0.2853-0.0872-0.2853-0.1456-0.0049-0.0745 0.0202-0.148 0.0699-0.2039 0.0584-0.0464 0.0876-0.0172 0.1866 0.0058z" clip-rule="evenodd" fill="#585136" fill-rule="evenodd"/>
<path d="m23.37 39.425s-0.1862 0.1456-0.2331 0.2159c-0.0583 0.0699-0.3437 0.4308-0.4308 0.5065 0.0289-0.0511 0.0619-0.0998 0.0987-0.1456-0.1152 0.0737-0.2016 0.1846-0.2446 0.3144-0.0699 0.2158 0.3905 0.3323 0.6931 0.4198 0.3026 0.0876 0.4197 0.1152 0.4197 0.1152-0.1114-0.1674-0.2071-0.3448-0.2857-0.5299-0.1152-0.2738-0.1747-0.303-0.0991-0.4313 0.0584-0.1283 0.1459-0.2153 0.1459-0.3144-0.0349-0.0922-0.0641-0.1506-0.0641-0.1506z" clip-rule="evenodd" fill="#574F35" fill-rule="evenodd"/>
<path d="m16.729 39.886c0.0424 0.0078 0.0858 0.0078 0.1282 0 0.0872-0.0119 0.9961-0.3456 1.9458-0.2857 0.7109 0.043 1.4155 0.1588 2.1028 0.3456 1.1942 0.3145 2.6795 0.9378 3.6407 1.2934 0.2561 0.0986 0.5068 0.2737 0.6912 0.3433 0.7342 0.2856 0.763 0.2856 1.1942 0.3613 0.5069 0.0699 1.0253-0.0991 1.5671-0.2154 0.6639-0.1459 1.7998-0.2158 2.7959-0.3614 0.3221-0.0446 0.6398-0.1167 0.9496-0.2154 0 0-0.7922 0.7922-2.6914 1.0775-0.7677 0.1166-1.5478 0.1264-2.3182 0.0292-0.606-0.0584-1.0076-0.1459-1.3106-0.2331-0.3437-0.0991-1.0487-0.3613-1.9166-0.576-0.6059-0.1574-1.2818-0.2738-2.0563-0.4193-1.9108-0.3498-3.9844-0.7515-4.7232-1.1417l8e-4 -0.0023z" clip-rule="evenodd" fill="#252211" fill-rule="evenodd"/>
<path d="m14.586 36.286c-0.4608 0.3901-0.9496 0.763-1.4269 1.124l-1.4389 1.1055c-0.4892 0.361-0.9669 0.7338-1.4565 1.0952-0.4896 0.3613-0.9784 0.7046-1.4976 1.0368 0.4608-0.3902 0.9497-0.7515 1.4389-1.1067s0.9965-0.7035 1.4684-1.0637l1.4388-1.1071c0.495-0.3609 0.9727-0.7346 1.4738-1.084zm-2.5449 4.0776s0.5184-0.4312 1.165-1.0368c0.8037-0.7511 1.7883-1.7126 2.1028-1.8869l-3.2678 2.9237z" clip-rule="evenodd" fill="#CFB66C" fill-rule="evenodd"/>
<path d="m12.039 40.363c0.2565-0.2561 0.5303-0.5065 0.8041-0.7515l0.4193-0.3609c0.1282-0.1152 0.2742-0.2446 0.402-0.3729 0.2562-0.2561 0.5069-0.5303 0.763-0.7922 0.127-0.1317 0.2612-0.2562 0.4021-0.3729 0.0704-0.0623 0.1486-0.1152 0.2327-0.1574 0.0703-0.0407 0.1459-0.1152 0.2446-0.1283-0.058 0.0876-0.1279 0.1283-0.1862 0.2039-0.0699 0.0584-0.1283 0.1283-0.1863 0.1863-0.1282 0.1282-0.2738 0.2446-0.402 0.3613-0.2738 0.2331-0.5591 0.4608-0.8329 0.7047-0.2738 0.2438-0.5299 0.5069-0.8041 0.7515-0.2968 0.2507-0.5706 0.4953-0.8563 0.7296v-0.0012zm3.488-2.33s-1.8988 1.8585-2.2894 2.1611l2.2894-2.1611z" clip-rule="evenodd" fill="#CFB66C" fill-rule="evenodd"/>
<path d="m15.528 38.033c-0.1708 0.1978-0.354 0.3845-0.5484 0.5591l-0.576 0.5476c-0.1862 0.1863-0.3613 0.3729-0.5591 0.5591-0.2039 0.1747-0.3901 0.3456-0.6059 0.5069l0.5591-0.5476c0.1866-0.1862 0.3905-0.3433 0.5887-0.5299l0.5591-0.5476c0.192-0.192 0.3786-0.3786 0.5825-0.5476zm0.086 1.0078c-0.175 0.4886-0.3813 0.9653-0.6175 1.4274-0.4892 0.9788-1.223 2.2018-1.5436 2.8255l2.1611-4.2529z" clip-rule="evenodd" fill="#CFB66C" fill-rule="evenodd"/>
<path d="m15.608 39.041c0 0.2154-0.0584 0.4021-0.1282 0.5883-0.0682 0.1864-0.1458 0.3692-0.2327 0.5476-0.0876 0.1747-0.1867 0.3613-0.2857 0.5303-0.0991 0.169-0.2155 0.3433-0.303 0.5184l-0.5883 1.0368c-0.2039 0.3456-0.4021 0.6931-0.6175 1.0253 0.1456-0.3729 0.3437-0.7223 0.5303-1.066 0.2039-0.3456 0.3902-0.6912 0.576-1.0487 0.0908-0.1782 0.1724-0.3608 0.2446-0.5472 0.0872-0.1866 0.1744-0.3614 0.2446-0.5303 0.0872-0.1863 0.1571-0.3614 0.2447-0.5299 0.0986-0.1809 0.1812-0.3556 0.3152-0.5246z" clip-rule="evenodd" fill="#CFB66C" fill-rule="evenodd"/>
<path d="m17.686 43.818s-0.576 0.763-0.5184 1.7299c0.1571-0.5065 0.3552-1.2814 0.5184-1.7299zm0.5469 0.7651s-0.204 2.0736-0.3729 3.0931c0.2388-1.1785 0.2853-1.0794 0.3729-3.0931zm3.8149 3.2154s-0.8621 2.5344-0.8798 3.2386c0.1866-0.7242 0.5476-2.2038 0.8798-3.2406v2e-3z" clip-rule="evenodd" fill="#DEC270" fill-rule="evenodd"/>
<path d="m24.066 43.661s1.3982 2.3067 2.4469 4.2754c-0.2838-0.9907-0.9366-2.8078-2.4469-4.2754z" clip-rule="evenodd" fill="#CBAF59" fill-rule="evenodd"/>
<path d="m27.824 47.057c0.7677 1.357 1.4599 2.7552 2.0736 4.1883-0.1163-0.9903-0.4312-2.6853-2.0736-4.1883z" clip-rule="evenodd" fill="#E3C677" fill-rule="evenodd"/>
<path d="m38.868 50.458c0.2327-0.1455 0.6931-0.9381 1.0951-1.1359 0.4017-0.2039 0.7047-0.2446 1.066-0.6466 0.361-0.4197 0.4608-0.6759 1.2522-1.0076 1.1071-0.4781 0.3456-1.0956 0.3456-1.0956 0.122-0.1198 0.2524-0.2306 0.3902-0.3318 0.2857-0.2154 0.6175-0.4777 0.5887-0.9381-0.0407-0.7745-0.1863-1.8989-0.8214-2.5513 0.6175-0.1282 1.7998-0.2154 2.5344-0.4016 0.8502-0.2158 1.2407-0.5188 1.2407-0.5188s-0.4892-0.8329 0.303-1.6716c0.7922-0.8386 1.4388-1.3397 1.9165-2.2779-0.5476-0.0698-1.3824-0.3609-3.5128 0.4486 0.115 0.0541 0.226 0.1163 0.3321 0.1862 0 0-1.3106 0.3613-1.7882 0.7634-0.8333 0.7046-0.9382 1.2814-1.8409 1.7126-0.9028 0.4313-1.8118 0.3145-2.5629 0.664-0.7511 0.3494-0.862 0.6466-1.1362 0.7749 0.0584 0.0699-0.0115 0.1862 0.0991 0.2853-0.0699 0.0991-0.4777 0.763-0.8913 0.763 0.0407 0.1574 0.3901 0.2738 0.3901 0.2738s-0.2561 0.1866-0.9085 0.2331c0.3318 0.3456 0.6466 0.7223 1.5145 1.2699-0.0699 0.1455-0.3614 0.3613-0.2446 0.6351 0.1282 0.2738 0.4608 0.6467 1.7883 0.9496-0.6759 0.0288-1.4677 0.1863-2.5344 0.0407-1.066-0.1282-1.2407-0.2039-1.8989-0.0407 0.0699 0.0699 0.2561 0.0699 0.4193 0.2562-0.1747 0.0115-1.2699-0.1283-1.6427 0.3613-0.3902 0.5065-0.5591 1.3398-0.53 1.8989-0.2039 0.0991-0.402 0.2738-0.3029 0.6351 0.099 0.3614 0.6174 0.4777 0.9496 0.7047 0.3318 0.2446 0.361 0.3317 0.6758 0.2737 0.3318-0.0698 0.821-0.4016 1.1067-0.4016s0.4892 0.2154 0.4892 0.2154 0.775-0.3729 0.8506-0.303c0.0699 0.0699 0.0115 0.5184 0.0872 0.5883 0.0768 0.0526 0.9496-0.4658 1.1827-0.6117h-0.0019z" clip-rule="evenodd" fill="#ECD592" fill-rule="evenodd"/>
</g>
</g>
<defs>
<filter id="a" x="-2" y="-1" width="76" height="76" color-interpolation-filters="sRGB" filterUnits="userSpaceOnUse">
<feFlood flood-opacity="0" result="BackgroundImageFix"/>
<feColorMatrix in="SourceAlpha" result="hardAlpha" values="0 0 0 0 0 0 0 0 0 0 0 0 0 0 0 0 0 0 127 0"/>
<feOffset dy="1"/>
<feGaussianBlur stdDeviation="1"/>
<feColorMatrix values="0 0 0 0 0 0 0 0 0 0 0 0 0 0 0 0 0 0 0.04 0"/>
<feBlend in2="BackgroundImageFix" result="effect1_dropShadow_106_127"/>
<feBlend in="SourceGraphic" in2="effect1_dropShadow_106_127" result="shape"/>
</filter>
<clipPath id="b">
<rect width="72" height="72" fill="#fff"/>
</clipPath>
</defs>
</svg>
