<?xml version="1.0" encoding="UTF-8"?>
<svg fill="none" viewBox="0 0 81 80" xmlns="http://www.w3.org/2000/svg">
<g clip-path="url(#a)">
<path d="m40.5 80c22.091 0 40-17.909 40-40s-17.909-40-40-40-40 17.909-40 40 17.909 40 40 40z" fill="#F2F5FA"/>
<path d="m32.274 21.002h-5.2203c-0.3606 0-0.6823 0.2254-0.806 0.564l-13.722 37.616c-0.102 0.2799 0.1052 0.576 0.403 0.576h5.2203c0.3606 0 0.6823-0.2254 0.806-0.5637l13.722-37.617c0.102-0.2798-0.1052-0.5759-0.403-0.5759zm6.3495 15.762c-0.1371-0.3759-0.6686-0.3759-0.806 0l-2.7063 7.4203c-0.0693 0.1898-0.0693 0.3981 0 0.5879l5.261 14.423c0.1234 0.3386 0.4455 0.5637 0.806 0.5637h5.2203c0.2979 0 0.5051-0.2961 0.403-0.576l-8.178-22.419zm13.308 7.2629c0.1371 0.376 0.6686 0.376 0.8057 0l8.1886-22.448c0.102-0.2798-0.1052-0.5759-0.403-0.5759h-5.2203c-0.3606 0-0.6823 0.2251-0.806 0.564l-5.2716 14.452c-0.0693 0.1898-0.0693 0.3978 0 0.5876l2.7066 7.4208zm-10.293-22.464c-0.1223-0.3363-0.4421-0.56-0.7997-0.56h-5.238c-0.3603 0-0.682 0.2251-0.8057 0.5637l-13.721 37.617c-0.102 0.2799 0.1052 0.576 0.403 0.576h5.2206c0.3605 0 0.6823-0.2252 0.806-0.5637l10.506-28.802c0.069-0.1889 0.336-0.1889 0.4047 0l10.506 28.802c0.1234 0.3385 0.4455 0.5637 0.806 0.5637h5.2206c0.2978 0 0.505-0.2961 0.403-0.5757l-13.711-37.621zm27.432-0.56h-5.2209c-0.3603 0-0.6823 0.2251-0.8057 0.5637l-9.5455 26.169c-0.0692 0.1898-0.0692 0.3978 0 0.5876l2.7069 7.4208c0.1371 0.376 0.6687 0.376 0.8057 0l9.4492-25.904 3.0133-8.2606c0.102-0.2796-0.1052-0.5757-0.403-0.5757z" fill="#EF8220"/>
</g>
<defs>
<clipPath id="a">
<rect transform="translate(.5)" width="80" height="80" fill="#fff"/>
</clipPath>
</defs>
</svg>
