<?xml version="1.0" encoding="UTF-8"?>
<svg fill="none" viewBox="0 0 81 80" xmlns="http://www.w3.org/2000/svg">
<g clip-path="url(#b)">
<path d="m40.5 80c22.091 0 40-17.909 40-40s-17.909-40-40-40-40 17.909-40 40 17.909 40 40 40z" fill="#1F2226"/>
<g clip-path="url(#a)">
<path d="m34.885 61.053c8.5277 0 15.439-6.9109 15.439-15.439 0-8.5278-6.9109-15.439-15.439-15.439-8.5278 0-15.439 6.9108-15.439 15.439 0 8.5277 6.9108 15.439 15.439 15.439zm0 5.614c-11.627 0-21.053-9.426-21.053-21.053 0-11.627 9.426-21.053 21.053-21.053 11.627 0 21.053 9.426 21.053 21.053 0 11.627-9.426 21.053-21.053 21.053z" fill="#FED64A"/>
<path d="m46.111 49.824c8.5277 0 15.439-6.9108 15.439-15.439 0-8.5277-6.9109-15.439-15.439-15.439s-15.439 6.9109-15.439 15.439c0 8.5278 6.9109 15.439 15.439 15.439zm0 5.6141c-11.627 0-21.053-9.426-21.053-21.053 0-11.627 9.426-21.053 21.053-21.053 11.627 0 21.053 9.426 21.053 21.053 0 11.627-9.426 21.053-21.053 21.053z" fill="#2DE183"/>
<path d="m46.807 55.439c1.4596-1.7684 2.5038-3.84 3.0596-6.0688 2.2232-0.5557 4.2948-1.6 6.0688-3.0596-0.0786 2.5768-0.6344 5.1144-1.6393 7.4947-2.3748 0.9993-4.9123 1.5551-7.4891 1.6337zm-15.68-24.808c-2.2232 0.5558-4.2948 1.6-6.0688 3.0596 0.0786-2.5768 0.6344-5.1143 1.6393-7.4891 2.3747-0.9993 4.9179-1.5551 7.4891-1.6393-1.4596 1.7684-2.5038 3.84-3.0596 6.0688z" fill="#ECFF8F"/>
</g>
</g>
<defs>
<clipPath id="b">
<rect transform="translate(.5)" width="80" height="80" fill="#fff"/>
</clipPath>
<clipPath id="a">
<rect transform="translate(13.832 13.333)" width="53.333" height="53.333" fill="#fff"/>
</clipPath>
</defs>
</svg>
