<?xml version="1.0" encoding="UTF-8"?>
<svg viewBox="0 0 50 50" xmlns="http://www.w3.org/2000/svg">
<circle cx="25" cy="25" r="25" fill="#E3453D"/>
<path d="m27.385 11.783 2.4262 4.3179c0.5907 1.0849 0.5907 2.8503 0 3.8926l-8.1435 14.209c-0.6118 1.0848-2.1308 1.9568-3.3544 1.9568h-6.7722c-1.4768 0-2.0887-1.0422-1.3503-2.3397l13.502-23.887c0.7384-1.2975 1.9199-1.2975 2.6582 0l1.0338 1.8506zm5.1675 13.911c0.7384-1.2976 1.9198-1.2976 2.6582 0l4.5992 8.1466c0.7384 1.2763 0.1266 2.3398-1.3502 2.3398h-9.2405c-1.4558 0-2.0676-1.0635-1.3292-2.3398l4.6625-8.1466z" clip-rule="evenodd" fill="#fff" fill-rule="evenodd"/>
</svg>
