<?xml version="1.0" encoding="UTF-8"?>
<svg fill="none" viewBox="0 0 72 72" xmlns="http://www.w3.org/2000/svg">
<g clip-path="url(#c)">
<g filter="url(#b)">
<mask id="a" x="0" y="0" width="72" height="72" style="mask-type:luminance" maskUnits="userSpaceOnUse">
<path d="m72 36c0-19.882-16.118-36-36-36s-36 16.118-36 36 16.118 36 36 36 36-16.118 36-36z" fill="#fff"/>
</mask>
<g clip-rule="evenodd" fill-rule="evenodd" mask="url(#a)">
<path d="m36 0c19.882 0 36 16.118 36 36s-16.118 36-36 36c-19.883 0-36-16.118-36-36s16.118-36 36-36z" fill="#627EEA"/>
<path d="m35.999 9.286-16.8 27.455 16.8 9.5385 16.911-9.5385-16.911-27.455z" fill="#fff"/>
<path d="m36 9.286v36.993l16.911-9.5385-16.911-27.454z" fill="#C0CBF6"/>
<path d="m35.999 29.245-16.8 7.4954 16.8 9.5379 16.911-9.5379-16.911-7.4954z" fill="#C0CBF6"/>
<path d="m36 29.245v17.033l16.911-9.5379-16.911-7.4951z" fill="#8197EE"/>
<path d="m36.055 62.72-16.856-22.379 16.8 9.5386 16.911-9.5386-16.855 22.379z" fill="#fff"/>
<path d="m36.056 62.72-0.0558-12.84 16.912-9.5386-16.856 22.379z" fill="#C0CBF6"/>
</g>
<path d="m71.5 36c0-19.606-15.894-35.5-35.5-35.5s-35.5 15.894-35.5 35.5 15.894 35.5 35.5 35.5 35.5-15.894 35.5-35.5z" stroke="#526279" stroke-opacity=".1"/>
</g>
</g>
<defs>
<filter id="b" x="-2" y="-1" width="76" height="76" color-interpolation-filters="sRGB" filterUnits="userSpaceOnUse">
<feFlood flood-opacity="0" result="BackgroundImageFix"/>
<feColorMatrix in="SourceAlpha" result="hardAlpha" values="0 0 0 0 0 0 0 0 0 0 0 0 0 0 0 0 0 0 127 0"/>
<feOffset dy="1"/>
<feGaussianBlur stdDeviation="1"/>
<feColorMatrix values="0 0 0 0 0 0 0 0 0 0 0 0 0 0 0 0 0 0 0.04 0"/>
<feBlend in2="BackgroundImageFix" result="effect1_dropShadow_107_2"/>
<feBlend in="SourceGraphic" in2="effect1_dropShadow_107_2" result="shape"/>
</filter>
<clipPath id="c">
<rect width="72" height="72" fill="#fff"/>
</clipPath>
</defs>
</svg>
