<?xml version="1.0" encoding="UTF-8"?>
<svg fill="none" viewBox="0 0 72 72" xmlns="http://www.w3.org/2000/svg">
<g clip-path="url(#c)">
<g filter="url(#b)">
<mask id="a" x="0" y="0" width="72" height="72" style="mask-type:luminance" maskUnits="userSpaceOnUse">
<path d="m72 36c0-19.882-16.118-36-36-36s-36 16.118-36 36 16.118 36 36 36 36-16.118 36-36z" fill="#fff"/>
</mask>
<g mask="url(#a)">
<path d="m36 72c19.882 0 36-16.118 36-36s-16.118-36-36-36-36 16.118-36 36 16.118 36 36 36z" fill="#8247E5"/>
<path d="m46.802 28.77c-0.7677-0.4415-1.7546-0.4415-2.6319 0l-6.141 3.6427-4.1671 2.3181-6.0313 3.6428c-0.7676 0.4415-1.7546 0.4415-2.6319 0l-4.7154-2.8701c-0.7676-0.4415-1.3159-1.3246-1.3159-2.3181v-5.5192c0-0.8831 0.4386-1.7662 1.3159-2.3181l4.7154-2.7597c0.7677-0.4415 1.7546-0.4415 2.6319 0l4.7154 2.87c0.7676 0.4416 1.3159 1.3247 1.3159 2.3181v3.6428l4.1671-2.4285v-3.7531c0-0.8831-0.4386-1.7662-1.3159-2.3181l-8.7729-5.1882c-0.7676-0.4415-1.7545-0.4415-2.6318 0l-8.9922 5.2986c-0.8773 0.4415-1.3159 1.3246-1.3159 2.2077v10.376c0 0.8831 0.4386 1.7662 1.3159 2.3181l8.8825 5.1882c0.7677 0.4415 1.7546 0.4415 2.6319 0l6.0313-3.5324 4.1671-2.4285 6.0314-3.5323c0.7676-0.4416 1.7545-0.4416 2.6318 0l4.7154 2.7596c0.7676 0.4416 1.3159 1.3247 1.3159 2.3181v5.5193c0 0.8831-0.4386 1.7662-1.3159 2.3181l-4.6057 2.7597c-0.7677 0.4415-1.7546 0.4415-2.6319 0l-4.7154-2.7597c-0.7676-0.4415-1.3159-1.3246-1.3159-2.3181v-3.5323l-4.1671 2.4285v3.6427c0 0.8831 0.4386 1.7662 1.3159 2.3181l8.8825 5.1881c0.7676 0.4416 1.7546 0.4416 2.6319 0l8.8825-5.1881c0.7676-0.4416 1.3159-1.3246 1.3159-2.3181v-10.487c0-0.883-0.4386-1.7661-1.3159-2.3181l-8.8825-5.1876z" fill="#EDF0F4"/>
</g>
<path d="m71.5 36c0-19.606-15.894-35.5-35.5-35.5s-35.5 15.894-35.5 35.5 15.894 35.5 35.5 35.5 35.5-15.894 35.5-35.5z" stroke="#526279" stroke-opacity=".1"/>
</g>
</g>
<defs>
<filter id="b" x="-2" y="-1" width="76" height="76" color-interpolation-filters="sRGB" filterUnits="userSpaceOnUse">
<feFlood flood-opacity="0" result="BackgroundImageFix"/>
<feColorMatrix in="SourceAlpha" result="hardAlpha" values="0 0 0 0 0 0 0 0 0 0 0 0 0 0 0 0 0 0 127 0"/>
<feOffset dy="1"/>
<feGaussianBlur stdDeviation="1"/>
<feColorMatrix values="0 0 0 0 0 0 0 0 0 0 0 0 0 0 0 0 0 0 0.04 0"/>
<feBlend in2="BackgroundImageFix" result="effect1_dropShadow_106_152"/>
<feBlend in="SourceGraphic" in2="effect1_dropShadow_106_152" result="shape"/>
</filter>
<clipPath id="c">
<rect width="72" height="72" fill="#fff"/>
</clipPath>
</defs>
</svg>
